<svg width="397" height="397" viewBox="0 0 397 397" fill="none" xmlns="http://www.w3.org/2000/svg">
<g opacity="0.44">
<path d="M3.47068e-05 397C3.01491e-05 344.865 10.2688 293.241 30.2199 245.075C50.171 196.908 79.4138 153.143 116.279 116.279C153.143 79.4138 196.908 50.171 245.075 30.2198C293.241 10.2687 344.865 2.27888e-06 397 0L397 125.148C361.3 125.148 325.949 132.179 292.967 145.841C259.984 159.503 230.015 179.528 204.772 204.772C179.528 230.015 159.503 259.984 145.841 292.967C132.18 325.949 125.148 361.3 125.148 397L3.47068e-05 397Z" fill="url(#paint0_linear_112_1524)"/>
<path d="M3.47068e-05 397C3.01491e-05 344.865 10.2688 293.241 30.2199 245.075C50.171 196.908 79.4138 153.143 116.279 116.279C153.143 79.4138 196.908 50.171 245.075 30.2198C293.241 10.2687 344.865 2.27888e-06 397 0L397 125.148C361.3 125.148 325.949 132.179 292.967 145.841C259.984 159.503 230.015 179.528 204.772 204.772C179.528 230.015 159.503 259.984 145.841 292.967C132.18 325.949 125.148 361.3 125.148 397L3.47068e-05 397Z" fill="url(#paint1_linear_112_1524)"/>
</g>
<defs>
<linearGradient id="paint0_linear_112_1524" x1="397" y1="54" x2="16.0001" y2="403" gradientUnits="userSpaceOnUse">
<stop stop-color="#E2E5FF" stop-opacity="0"/>
<stop offset="1" stop-color="#B6DAFF"/>
</linearGradient>
<linearGradient id="paint1_linear_112_1524" x1="397" y1="54" x2="16.0001" y2="403" gradientUnits="userSpaceOnUse">
<stop stop-color="#E2E5FF" stop-opacity="0"/>
<stop offset="1" stop-color="#B6DAFF"/>
</linearGradient>
</defs>
</svg>
