<svg width="397" height="397" viewBox="0 0 397 397" fill="none" xmlns="http://www.w3.org/2000/svg">
<g opacity="0.44">
<path d="M397 0C397 52.1348 386.731 103.759 366.78 151.925C346.829 200.092 317.586 243.857 280.721 280.721C243.857 317.586 200.092 346.829 151.925 366.78C103.759 386.731 52.1348 397 0 397L5.47039e-06 271.852C35.7001 271.852 71.0507 264.821 104.033 251.159C137.016 237.497 166.985 217.472 192.229 192.229C217.472 166.985 237.497 137.016 251.159 104.033C264.82 71.0507 271.852 35.7001 271.852 0H397Z" fill="url(#paint0_linear_112_1525)"/>
<path d="M397 0C397 52.1348 386.731 103.759 366.78 151.925C346.829 200.092 317.586 243.857 280.721 280.721C243.857 317.586 200.092 346.829 151.925 366.78C103.759 386.731 52.1348 397 0 397L5.47039e-06 271.852C35.7001 271.852 71.0507 264.821 104.033 251.159C137.016 237.497 166.985 217.472 192.229 192.229C217.472 166.985 237.497 137.016 251.159 104.033C264.82 71.0507 271.852 35.7001 271.852 0H397Z" fill="url(#paint1_linear_112_1525)"/>
</g>
<defs>
<linearGradient id="paint0_linear_112_1525" x1="-7.01223e-06" y1="343" x2="381" y2="-6.00001" gradientUnits="userSpaceOnUse">
<stop stop-color="#E2E5FF" stop-opacity="0"/>
<stop offset="1" stop-color="#B6DAFF"/>
</linearGradient>
<linearGradient id="paint1_linear_112_1525" x1="-7.01223e-06" y1="343" x2="381" y2="-6.00001" gradientUnits="userSpaceOnUse">
<stop stop-color="#E2E5FF" stop-opacity="0"/>
<stop offset="1" stop-color="#B6DAFF"/>
</linearGradient>
</defs>
</svg>
