<?xml version="1.0" encoding="utf-8"?>
<!-- Svg Vector Icons : http://www.onlinewebfonts.com/icon -->
<!DOCTYPE svg PUBLIC "-//W3C//DTD SVG 1.1//EN" "http://www.w3.org/Graphics/SVG/1.1/DTD/svg11.dtd">
<svg version="1.1" xmlns="http://www.w3.org/2000/svg" xmlns:xlink="http://www.w3.org/1999/xlink" x="0px" y="0px" viewBox="0 0 256 256" enable-background="new 0 0 256 256" xml:space="preserve">
<metadata> Svg Vector Icons : http://www.onlinewebfonts.com/icon </metadata>
<g><g><g><path fill="#000000" d="M117.4,10c-0.8,0.1-3.6,0.5-6.4,0.8c-24.1,3-48.5,15.2-66.7,33.4c-17.9,17.9-28.8,39.2-33.3,65c-1.3,7.8-1.3,29.5,0,37.2c6.3,36,26.2,65.2,56.9,83.5c36.4,21.7,83.6,21.6,120.2-0.1c30.5-18.1,50.6-47.6,56.8-83.4c1.4-7.9,1.4-28.8,0-37.1c-6.2-37.2-28.6-68.4-61.5-86c-10.8-5.7-23.8-10.2-36.5-12.3C141.9,10.2,120.7,9.5,117.4,10z M143.1,17.8c36.9,5.1,68.4,27.9,84.7,61.3C235.5,94.9,239,110,239,128c0,18-3.5,33-11.2,48.8c-14.5,29.7-42.2,51.9-74,59.4c-16.5,3.8-35.2,3.8-51.7,0c-31.9-7.5-59.5-29.6-74-59.4c-5.6-11.4-9.1-23.4-10.7-36.1c-1.1-8.9-0.4-25.8,1.5-34.4c9.8-46.9,46.5-81.5,93.7-88.4C119.8,16.8,135.5,16.8,143.1,17.8z"/><path fill="#000000" d="M117.5,61.6c-2.7,1.6-3.5,3.3-4.6,9.5c-0.6,3.1-1.1,5.7-1.2,5.8c-0.1,0.1-2.3,1.1-4.9,2.2l-4.7,2l-3.8-2.7c-9-6.4-10.4-6.2-19.4,2.8c-7.9,8.1-8,9.4-2.1,17.8l3.1,4.5l-2,4.9l-2,4.9l-5.3,0.9c-6.2,1.1-8.4,2.1-9.9,4.5c-1,1.6-1.1,2.6-0.9,10.8c0.2,8.8,0.2,9,1.6,10.5c2,2.1,3.6,2.8,8.1,3.6c7,1.2,6.9,1.1,7.6,3.3c0.3,1.1,1.3,3.3,2,4.7l1.3,2.7l-2.7,3.8c-6.6,9-6.3,11.1,2.8,20c7.5,7.3,9.7,7.5,17.4,1.9l4.6-3.3l4.7,1.9l4.7,1.9l1,5.7c1.1,6.2,2,7.9,4.9,9.6c1.7,1,2.9,1.1,10,1.1c11.3,0,12.7-0.9,14.3-9.1c1.5-7.8,1.1-7.2,6.4-9.4l4.9-2l4.3,3.1c8,5.7,10.1,5.5,17.6-1.7c6.5-6.2,7.4-7.8,7.1-11.5c-0.2-2.5-0.8-3.6-3.6-7.6l-3.3-4.7l1.5-3.4c0.8-1.8,1.8-4,2.1-4.8c0.5-1.3,1.1-1.5,5-2.1c6.5-1,8.9-2.1,10.5-4.4c1.3-2,1.4-2.4,1.4-10.7c0-7.6-0.1-8.8-1.1-10.4c-1.5-2.4-3.6-3.3-9.7-4.4c-2.7-0.5-5.1-1-5.2-1.1c-0.3-0.4-4-8.9-4-9.4c0-0.3,1.3-2.3,2.9-4.5c6-8.5,5.7-10.4-2.7-18.6c-3.2-3.1-6.2-5.7-6.8-6c-0.5-0.2-2-0.4-3.3-0.4c-2-0.1-3.1,0.4-7.6,3.5c-2.9,2-5.4,3.5-5.6,3.3c-0.2-0.2-2.3-1.1-4.9-2.2l-4.6-1.8l-0.9-5.7c-1.6-9.7-2.8-10.5-14.7-10.5C120.4,60.5,119.1,60.6,117.5,61.6z M135.5,74c0.6,3.5,1.3,6.9,1.7,7.5c0.4,0.8,2.2,1.7,4.5,2.5c2.1,0.6,5.5,2.1,7.6,3.1c2.2,1.1,4.3,1.8,4.9,1.6s3.5-2.1,6.5-4.2l5.5-3.9l4.6,4.6c2.6,2.5,4.6,4.9,4.6,5.3c0,0.4-1.7,3.2-3.9,6.1c-2.1,3-3.9,5.7-3.9,6.1c0,0.4,0.8,2.5,1.9,4.5c1,2.1,2.4,5.4,3.1,7.5c0.7,2.1,1.6,4,1.9,4.2c0.4,0.2,3.7,0.9,7.4,1.6l6.7,1.2l0.2,7l0.2,7l-6.6,1c-7.4,1.2-8.5,1.8-9.6,5.8c-0.4,1.4-1.7,4.6-2.9,7.1c-1.3,2.8-2,5-1.8,5.6c0.3,0.8,5.2,8,7.6,11.2c0.4,0.5-0.7,2-3.6,5c-2.3,2.3-4.6,4.5-5.1,4.7c-0.7,0.4-2.2-0.4-6.5-3.4c-3-2.1-6-3.9-6.6-3.9c-0.6,0-3.2,1-5.8,2.2c-2.6,1.2-5.7,2.5-7.1,2.8c-1.3,0.3-2.7,1.2-3.1,1.8c-0.4,0.7-1.2,3.6-1.7,6.5c-0.4,2.9-1,5.9-1.1,6.5c-0.3,1.2-0.5,1.3-7,1.3c-3.6,0-6.8-0.2-6.9-0.4c-0.2-0.3-0.8-3.4-1.4-7c-0.6-3.6-1.4-6.9-1.7-7.4c-0.4-0.4-2.1-1.1-3.8-1.6c-1.7-0.5-4.8-1.8-6.9-2.8c-2.1-1.1-4.2-1.9-4.8-1.9c-0.6,0-3.6,1.7-6.6,3.9c-3.1,2.1-5.8,3.9-6.1,3.9c-0.3,0-2.7-2.1-5.2-4.6l-4.6-4.6l3.7-5.2c2-2.9,3.9-5.8,4.1-6.4c0.3-0.9-0.1-2.4-1.6-5.6c-1.2-2.4-2.6-5.7-3.1-7.4c-0.6-1.6-1.3-3.2-1.7-3.7c-0.4-0.4-2.7-1.1-5.1-1.4c-2.4-0.4-5.5-0.9-7-1.3l-2.7-0.6v-6.6c0-3.6,0.2-6.8,0.4-6.9c0.2-0.1,2.8-0.7,5.7-1.1c9.1-1.6,8.9-1.4,10.3-6.3c0.5-1.7,1.8-4.9,2.8-7c1.1-2.1,1.9-4.2,1.9-4.7c0-0.5-1.7-3.4-3.9-6.4c-2.1-3-3.9-5.8-3.9-6.2c0-0.8,8.4-9.4,9.2-9.4c0.4,0,3.1,1.7,6.1,3.9c3,2.1,6,3.9,6.5,3.9c0.6,0,2.3-0.7,4-1.6c1.6-0.9,4.9-2.3,7.3-3.2c2.4-0.8,4.6-1.9,4.8-2.4c0.3-0.5,0.9-3.5,1.4-6.8c0.6-3.2,1.1-6.2,1.2-6.6c0.2-0.5,2.1-0.7,7.1-0.7h6.9L135.5,74z"/><path fill="#000000" d="M120.2,100.4c-4.6,1.2-9.1,3.9-12.8,7.6c-5.8,5.7-8.6,12.7-8.6,21.1c0.1,13.7,9.7,25.3,23.3,28.2c4.9,1,6.8,1,11.7,0c8.6-1.8,16.5-7.8,20.2-15.3c8.2-16.8-0.7-36.9-18.5-41.6C131.4,99.3,124.2,99.3,120.2,100.4z M137,108.5c8.9,4.2,14.4,14.4,12.8,23.7c-1.7,9.4-8.8,16.4-18.4,18.2c-14.2,2.6-27.7-10.8-25.2-25.1c1.4-8,6.2-14,13.9-17.2c2.7-1.1,3.9-1.3,8.4-1.2C132.9,107,134.4,107.3,137,108.5z"/></g></g></g>
</svg>