<svg width="130" height="32" viewBox="0 0 130 32" fill="none" xmlns="http://www.w3.org/2000/svg">
<path d="M6.02732 12.1628V27.187H1V4.33887H7.41416L15.0418 20.1001V4.33887H20.1269V27.187H13.655L6.02732 12.1628Z" fill="#5D6F92"/>
<path d="M44.0492 27.187H38.6174L37.4039 22.7081H29.6029L28.3317 27.187H22.8999L30.0652 4.33887H37.0572L44.0492 27.187ZM30.7008 18.456H36.0749L33.359 8.87448L30.7008 18.456Z" fill="#5D6F92"/>
<path d="M51.6241 12.1628V27.187H46.5968V4.33887H53.0109L60.6386 20.1001V4.33887H65.6659V27.187H59.1939L51.6241 12.1628Z" fill="#5D6F92"/>
<path d="M87.4546 20.4983C87.4546 23.9567 85.0276 27.4718 78.4401 27.4718C71.8526 27.4718 69.4256 23.9567 69.4256 20.4983V10.9735C69.4256 7.5151 71.8526 4 78.4401 4C85.0276 4 87.4546 7.5151 87.4546 10.9735V20.4983ZM82.1961 11.4838C82.1961 9.66951 81.0404 8.59231 78.3823 8.59231C75.7242 8.59231 74.5685 9.66951 74.5685 11.4838V20.1581C74.5685 21.9724 75.7242 23.0496 78.3823 23.0496C81.0404 23.0496 82.1961 21.9724 82.1961 20.1581V11.4838Z" fill="#5D6F92"/>
<path d="M102.938 27.187H95.4839L88.8964 4.33887H94.2126L99.1244 22.538L104.036 4.33887H109.41L102.938 27.187Z" fill="#5D6F92"/>
<path d="M129 20.4983C129 23.9567 126.573 27.4718 119.986 27.4718C113.398 27.4718 110.971 23.9567 110.971 20.4983V10.9735C110.971 7.5151 113.398 4 119.986 4C126.573 4 129 7.5151 129 10.9735V20.4983ZM123.799 11.4838C123.799 9.66952 122.644 8.59231 119.986 8.59231C117.385 8.59231 116.172 9.66952 116.172 11.4838V20.1581C116.172 21.9724 117.327 23.0496 119.986 23.0496C122.586 23.0496 123.799 21.9724 123.799 20.1581V11.4838Z" fill="#5D6F92"/>
</svg>
