<svg width="130" height="32" viewBox="0 0 130 32" fill="none" xmlns="http://www.w3.org/2000/svg">
<g clip-path="url(#clip0_1433_20327)">
<path fill-rule="evenodd" clip-rule="evenodd" d="M8.93108 23.5729H1.71166C1.56021 23.5729 1.40875 23.4214 1.40875 23.27V8.73014C1.40875 8.57869 1.56021 8.42723 1.71166 8.42723H8.80487C12.1874 8.42723 13.9544 10.1437 13.9544 12.4913C13.9544 13.8039 13.4495 14.7632 12.566 15.4447V15.4952C13.8282 16.2272 14.5855 17.4641 14.5855 19.1049C14.5855 22.0078 12.4903 23.5729 8.93108 23.5729ZM3.63011 21.6544H8.8806C11.3039 21.6544 12.3641 20.7962 12.3641 19.1049C12.3641 17.4389 11.2787 16.5806 8.8806 16.5806H3.63011V21.6544ZM8.75438 10.3457H3.63011V14.6622H9.25924C11.3039 14.6622 11.733 13.7282 11.733 12.4913C11.733 11.2797 11.001 10.3457 8.75438 10.3457ZM27.3078 8.1748C31.8515 8.1748 35.4864 11.103 35.4864 16C35.4864 20.8971 31.8262 23.8253 27.3078 23.8253C22.8146 23.8253 19.1291 20.8971 19.1291 16C19.1291 11.103 22.8146 8.1748 27.3078 8.1748ZM27.3078 10.0933C24.0515 10.0933 21.3505 12.2641 21.3505 16C21.3505 19.6855 24.0515 21.9068 27.3078 21.9068C30.6146 21.9068 33.2651 19.6855 33.2651 16C33.2651 12.2641 30.6398 10.0933 27.3078 10.0933ZM43.6651 8.73014V21.6544H51.9952C52.1466 21.6544 52.3486 21.8564 52.3486 22.0078V23.2195C52.3486 23.3709 52.1466 23.5729 51.9952 23.5729H41.7466C41.5952 23.5729 41.4437 23.4214 41.4437 23.27V8.73014C41.4437 8.57869 41.5952 8.42723 41.7466 8.42723H43.3621C43.5136 8.42723 43.6651 8.57869 43.6651 8.73014ZM63.733 23.5729H57.1194C56.968 23.5729 56.8165 23.4214 56.8165 23.27V8.73014C56.8165 8.57869 56.968 8.42723 57.1194 8.42723H63.6825C68.6554 8.42723 72.1893 11.3806 72.1893 16C72.1893 20.5437 69.2107 23.5729 63.733 23.5729ZM63.6825 12.2641H61.3602V19.736H63.7078C66.3583 19.736 67.6456 18.2971 67.6456 16C67.6456 13.6272 66.0301 12.2641 63.6825 12.2641ZM88.0165 23.2447L87.2845 21.5534H80.6709L79.9388 23.2447C79.8126 23.5224 79.7117 23.5729 79.4087 23.5729H75.168C75.0165 23.5729 74.966 23.4719 74.966 23.3962C74.966 23.3204 75.0165 23.2195 75.067 23.0933L81.8573 8.42723H86.0981L92.8884 23.0933C92.9388 23.1942 92.9893 23.3204 92.9893 23.3962C92.9893 23.4719 92.9388 23.5729 92.7874 23.5729H88.5466C88.2437 23.5729 88.1427 23.5224 88.0165 23.2447ZM82.9175 16.4292L82.2359 17.969H85.7194L85.0379 16.4292C84.634 15.4952 84.0534 13.5515 84.0534 13.5515H83.902C83.902 13.5515 83.3214 15.4952 82.9175 16.4292ZM97.2049 23.27V8.73014C97.2049 8.57869 97.3563 8.42723 97.5078 8.42723H105.081C108.817 8.42723 111.467 10.6486 111.467 14.0311C111.467 16.1767 110.306 17.7166 108.539 18.5748V18.6253C108.539 18.6253 108.867 19.0797 109.145 19.5088L111.417 23.0175C111.543 23.2195 111.593 23.2952 111.593 23.3962C111.593 23.4971 111.517 23.5729 111.341 23.5729H106.696C106.57 23.5729 106.418 23.5224 106.343 23.3962L103.793 19.4078H101.749V23.27C101.749 23.4214 101.597 23.5729 101.446 23.5729H97.5078C97.3563 23.5729 97.2049 23.4214 97.2049 23.27ZM104.677 12.2641H101.749V15.8233H104.677C106.116 15.8233 106.923 15.0408 106.923 14.0311C106.923 12.9962 106.116 12.2641 104.677 12.2641ZM128.228 17.7166H120.807V19.736H129.086C129.238 19.736 129.44 19.9379 129.44 20.0894V23.2195C129.44 23.3709 129.238 23.5729 129.086 23.5729H116.566C116.415 23.5729 116.263 23.4214 116.263 23.27V8.73014C116.263 8.57869 116.415 8.42723 116.566 8.42723H128.985C129.137 8.42723 129.339 8.62917 129.339 8.78063V11.9107C129.339 12.0622 129.137 12.2641 128.985 12.2641H120.807V14.1321H128.228C128.38 14.1321 128.582 14.334 128.582 14.4855V17.3632C128.582 17.5146 128.38 17.7166 128.228 17.7166Z" fill="#5D6F92"/>
</g>
<defs>
<clipPath id="clip0_1433_20327">
<rect width="130" height="32" fill="white"/>
</clipPath>
</defs>
</svg>
