<svg width="131" height="32" viewBox="0 0 131 32" fill="none" xmlns="http://www.w3.org/2000/svg">
<path d="M35.9135 18.3675V2.07075C35.9135 1.31462 35.301 0.702148 34.5449 0.702148C33.7887 0.702148 33.1763 1.31462 33.1763 2.07075V18.3675C33.1763 22.5559 27.258 22.5628 27.258 18.3675V11.7981C27.258 11.7877 27.2598 11.7783 27.2598 11.7688C27.2598 11.0135 26.6473 10.4002 25.8912 10.4002C25.1359 10.4002 24.5226 11.0127 24.5226 11.7688V18.3684C24.5234 26.0837 35.9135 26.1929 35.9135 18.3675Z" fill="#5D6F92"/>
<path d="M30.218 19.9866C30.9303 19.9866 31.5152 19.4412 31.5797 18.7462H31.5866V11.8481C31.5866 11.092 30.9741 10.4795 30.218 10.4795C29.4619 10.4795 28.8494 11.092 28.8494 11.8481V18.7462H28.8554C28.9208 19.4421 29.5058 19.9866 30.218 19.9866Z" fill="#5D6F92"/>
<path d="M38.8433 7.75146C38.0795 7.75146 37.4601 8.37082 37.4601 9.13469V19.2525C37.2545 23.1029 34.0683 26.1618 30.1673 26.1618C26.2662 26.1618 23.0809 23.1029 22.8744 19.2534V15.0048C22.8744 14.2409 22.2551 13.6216 21.4912 13.6216C20.7273 13.6216 20.108 14.2409 20.108 15.0048V19.3429H20.1149C20.1157 19.3532 20.1174 19.3635 20.1183 19.373C20.3875 24.6917 24.7824 28.9214 30.1673 28.9214C35.553 28.9214 39.947 24.6908 40.2162 19.373C40.2171 19.3626 40.2188 19.3523 40.2197 19.3429H40.2266V9.13469C40.2266 8.37082 39.6072 7.75146 38.8433 7.75146Z" fill="#5D6F92"/>
<path d="M57.4978 22.5709C57.374 22.8109 57.1494 23.0234 56.8251 23.2092C56.3761 23.4879 55.8075 23.7202 55.1194 23.9051C54.4312 24.0909 53.6458 24.1838 52.7641 24.1838C51.9598 24.1838 51.2329 24.0944 50.5826 23.9172C49.9331 23.7391 49.3757 23.4647 48.9121 23.0931C48.4484 22.7215 48.0923 22.2501 47.8446 21.678C47.5968 21.106 47.4729 20.4247 47.4729 19.6359V12.8832C47.5968 12.8367 47.7783 12.7946 48.0183 12.7559C48.2583 12.7172 48.525 12.6982 48.8192 12.6982C49.3602 12.6982 49.7628 12.7946 50.026 12.9881C50.2893 13.1817 50.4209 13.5413 50.4209 14.0668V19.5894C50.4209 20.3937 50.6256 20.9701 51.0359 21.3185C51.4454 21.6668 52.0295 21.8406 52.7882 21.8406C53.2673 21.8406 53.6733 21.7942 54.0062 21.7013C54.3391 21.6084 54.5903 21.5077 54.7606 21.3993V12.8832C54.8845 12.8367 55.066 12.7946 55.306 12.7559C55.546 12.7172 55.8049 12.6982 56.0836 12.6982C56.6402 12.6982 57.0471 12.7946 57.3017 12.9881C57.5572 13.1817 57.6845 13.5413 57.6845 14.0668V21.678C57.6836 22.0342 57.6217 22.3318 57.4978 22.5709Z" fill="#5D6F92"/>
<path d="M68.5266 20.7272C68.5266 21.8102 68.124 22.6575 67.3197 23.2682C66.5154 23.879 65.3395 24.1852 63.7928 24.1852C63.158 24.1852 62.5825 24.1388 62.0638 24.0459C61.5451 23.953 61.0969 23.8179 60.7176 23.6399C60.3382 23.4618 60.0449 23.245 59.8359 22.9904C59.6268 22.7349 59.5228 22.4528 59.5228 22.1431C59.5228 21.8497 59.5881 21.5943 59.7197 21.3775C59.8514 21.1607 60.0251 20.9826 60.2419 20.8442C60.6746 21.1229 61.1735 21.3706 61.7387 21.5865C62.3029 21.8033 62.9567 21.9117 63.6999 21.9117C64.3339 21.9117 64.8139 21.8076 65.1391 21.5986C65.4642 21.3895 65.6259 21.0996 65.6259 20.728C65.6259 20.094 65.1623 19.676 64.2341 19.4747L62.9343 19.1728C61.7894 18.9095 60.9421 18.5156 60.3933 17.9891C59.8436 17.4635 59.5692 16.759 59.5692 15.8773C59.5692 14.8717 59.9709 14.0553 60.7761 13.4291C61.5804 12.8029 62.7098 12.4897 64.1636 12.4897C64.7201 12.4897 65.2345 12.5328 65.7068 12.6171C66.1782 12.7022 66.5885 12.8261 66.9369 12.9887C67.2853 13.1513 67.5554 13.3448 67.7489 13.5685C67.9425 13.793 68.0388 14.0519 68.0388 14.3461C68.0388 14.6248 67.9769 14.8682 67.853 15.0773C67.7292 15.2863 67.5821 15.4523 67.4117 15.5762C67.2724 15.4833 67.0909 15.3904 66.8664 15.2975C66.6418 15.2046 66.3941 15.1194 66.124 15.042C65.853 14.9646 65.5674 14.8992 65.2655 14.845C64.9636 14.7908 64.6659 14.7642 64.3718 14.7642C63.7687 14.7642 63.2965 14.8614 62.9567 15.054C62.6161 15.2476 62.4457 15.522 62.4457 15.8781C62.4457 16.1414 62.5421 16.3581 62.7356 16.5276C62.9292 16.6979 63.2655 16.8373 63.7447 16.9457L64.8819 17.2244C66.1662 17.5186 67.0943 17.9478 67.6664 18.5121C68.2401 19.0756 68.5266 19.8145 68.5266 20.7272Z" fill="#5D6F92"/>
<path d="M72.7321 19.6592C72.9489 20.4481 73.3506 21.021 73.939 21.3762C74.5265 21.7324 75.2534 21.9096 76.1205 21.9096C76.77 21.9096 77.3695 21.8132 77.9192 21.6197C78.468 21.4261 78.9127 21.2214 79.2534 21.0046C79.4702 21.1285 79.6482 21.2988 79.7867 21.5147C79.9261 21.7315 79.9958 21.9638 79.9958 22.2106C79.9958 22.5203 79.8917 22.7947 79.6826 23.0347C79.4736 23.2747 79.1872 23.4795 78.8241 23.6498C78.4603 23.8201 78.031 23.9517 77.5364 24.0446C77.0409 24.1375 76.5076 24.184 75.9356 24.184C75.0229 24.184 74.1911 24.0601 73.441 23.8124C72.6908 23.5655 72.0491 23.1896 71.5149 22.6872C70.9816 22.1848 70.5635 21.562 70.2616 20.8188C69.9597 20.0765 69.8091 19.2102 69.8091 18.2201C69.8091 17.261 69.9562 16.4257 70.2504 15.7143C70.5438 15.0029 70.9429 14.4076 71.4453 13.9276C71.9476 13.4485 72.5317 13.0924 73.1975 12.8601C73.8625 12.6278 74.567 12.5117 75.3093 12.5117C76.0672 12.5117 76.7631 12.6321 77.3979 12.8713C78.0319 13.1113 78.573 13.4442 79.022 13.8691C79.4702 14.2949 79.8228 14.8051 80.0775 15.4003C80.333 15.9956 80.4603 16.6416 80.4603 17.3375C80.4603 17.7711 80.3476 18.0954 80.1239 18.3121C79.8994 18.5289 79.5863 18.6683 79.1846 18.7302L72.7321 19.6592ZM75.3085 14.7165C74.5506 14.7165 73.9158 14.9676 73.4057 15.4709C72.8947 15.9741 72.6091 16.6889 72.5472 17.6171L77.699 16.8515C77.6371 16.2795 77.4125 15.7805 77.0263 15.3547C76.6384 14.9298 76.0663 14.7165 75.3085 14.7165Z" fill="#5D6F92"/>
<path d="M98.4498 23.8134C98.326 23.8443 98.1445 23.883 97.9045 23.9295C97.6645 23.9759 97.4055 23.9992 97.1268 23.9992C96.5703 23.9992 96.1634 23.8985 95.9088 23.6972C95.6533 23.4959 95.526 23.1407 95.526 22.6297V16.5962C95.526 15.9777 95.3557 15.5286 95.0159 15.2499C94.6752 14.9712 94.2271 14.8319 93.6697 14.8319C93.298 14.8319 92.9385 14.9015 92.591 15.0409C92.2426 15.1802 91.9372 15.3661 91.6748 15.5975C91.7213 15.8142 91.7445 16.031 91.7445 16.2469V23.8116C91.6206 23.8426 91.4391 23.8813 91.1991 23.9278C90.9591 23.9742 90.7002 23.9975 90.4215 23.9975C89.865 23.9975 89.4581 23.8968 89.2034 23.6955C88.948 23.4942 88.8207 23.139 88.8207 22.628V16.5944C88.8207 15.9759 88.6426 15.5269 88.2873 15.2482C87.9312 14.9695 87.4753 14.8301 86.9179 14.8301C86.5308 14.8301 86.1755 14.8921 85.8504 15.0159C85.5252 15.1398 85.2551 15.2637 85.0383 15.3876V23.8108C84.899 23.8418 84.7131 23.8805 84.4818 23.9269C84.2495 23.9734 83.9863 23.9966 83.6929 23.9966C83.151 23.9966 82.7493 23.8959 82.4861 23.6947C82.2228 23.4934 82.0912 23.1381 82.0912 22.6271V15.1785C82.0912 14.8224 82.1687 14.5248 82.3235 14.2848C82.4783 14.0448 82.7183 13.8168 83.0426 13.6C83.5063 13.2912 84.0947 13.0314 84.8061 12.8224C85.5174 12.6134 86.2521 12.5093 87.0108 12.5093C88.4181 12.5093 89.563 12.8886 90.4447 13.6465C90.8929 13.3213 91.4082 13.0512 91.9879 12.8344C92.5677 12.6177 93.2525 12.5093 94.0413 12.5093C94.6443 12.5093 95.2172 12.5833 95.7582 12.7295C96.2993 12.8766 96.7673 13.1123 97.1621 13.4375C97.5569 13.7626 97.8701 14.1764 98.1023 14.6787C98.3346 15.182 98.4507 15.7807 98.4507 16.4775V23.8134H98.4498Z" fill="#5D6F92"/>
<path d="M103.143 19.6592C103.36 20.4481 103.762 21.021 104.35 21.3762C104.938 21.7324 105.664 21.9096 106.531 21.9096C107.181 21.9096 107.781 21.8132 108.33 21.6197C108.879 21.4261 109.324 21.2214 109.664 21.0046C109.881 21.1285 110.059 21.2988 110.198 21.5147C110.337 21.7315 110.407 21.9638 110.407 22.2106C110.407 22.5203 110.303 22.7947 110.094 23.0347C109.885 23.2747 109.598 23.4795 109.235 23.6498C108.871 23.8201 108.442 23.9517 107.947 24.0446C107.452 24.1375 106.919 24.184 106.347 24.184C105.434 24.184 104.602 24.0601 103.852 23.8124C103.102 23.5655 102.46 23.1896 101.926 22.6872C101.393 22.1848 100.975 21.562 100.673 20.8188C100.371 20.0765 100.22 19.2102 100.22 18.2201C100.22 17.261 100.367 16.4257 100.661 15.7143C100.955 15.0029 101.354 14.4076 101.856 13.9276C102.359 13.4485 102.943 13.0924 103.609 12.8601C104.273 12.6278 104.978 12.5117 105.72 12.5117C106.478 12.5117 107.174 12.6321 107.809 12.8713C108.443 13.1113 108.984 13.4442 109.433 13.8691C109.881 14.2949 110.234 14.8051 110.488 15.4003C110.744 15.9956 110.871 16.6416 110.871 17.3375C110.871 17.7711 110.759 18.0954 110.535 18.3121C110.31 18.5289 109.997 18.6683 109.596 18.7302L103.143 19.6592ZM105.719 14.7165C104.961 14.7165 104.326 14.9676 103.816 15.4709C103.305 15.9741 103.019 16.6889 102.957 17.6171L108.109 16.8515C108.047 16.2795 107.823 15.7805 107.436 15.3547C107.049 14.9298 106.476 14.7165 105.719 14.7165Z" fill="#5D6F92"/>
</svg>
