<svg width="130" height="32" viewBox="0 0 130 32" fill="none" xmlns="http://www.w3.org/2000/svg">
<g clip-path="url(#clip0_1433_20006)">
<mask id="mask0_1433_20006" style="mask-type:luminance" maskUnits="userSpaceOnUse" x="11" y="6" width="24" height="20">
<path d="M21.8331 6.47882H34.4235L30.0272 21.1521C29.2872 23.6217 27.0171 25.313 24.442 25.313H11.8516L16.2479 10.6397C16.9879 8.17007 19.258 6.47882 21.8331 6.47882Z" fill="white"/>
</mask>
<g mask="url(#mask0_1433_20006)">
<mask id="mask1_1433_20006" style="mask-type:luminance" maskUnits="userSpaceOnUse" x="0" y="5" width="131" height="22">
<path d="M0.185181 26.9692H130.185V5.03174H0.185181V26.9692Z" fill="white"/>
</mask>
<g mask="url(#mask1_1433_20006)">
<path d="M10.4976 5.12498H35.7778V26.6675H10.4976V5.12498Z" fill="#5D6F92"/>
</g>
</g>
<mask id="mask2_1433_20006" style="mask-type:luminance" maskUnits="userSpaceOnUse" x="11" y="6" width="24" height="20">
<path d="M21.8331 6.47882H34.4235L30.0272 21.1521C29.2872 23.6217 27.0171 25.313 24.442 25.313H11.8516L16.2479 10.6397C16.9879 8.17007 19.258 6.47882 21.8331 6.47882Z" fill="white"/>
</mask>
<g mask="url(#mask2_1433_20006)">
<mask id="mask3_1433_20006" style="mask-type:luminance" maskUnits="userSpaceOnUse" x="0" y="5" width="131" height="22">
<path d="M0.185181 26.9692H130.185V5.03174H0.185181V26.9692Z" fill="white"/>
</mask>
<g mask="url(#mask3_1433_20006)">
<mask id="mask4_1433_20006" style="mask-type:luminance" maskUnits="userSpaceOnUse" x="-2" y="-2" width="39" height="20">
<path d="M-1.16882 17.6709H36.8381V-1.28743H-1.16882V17.6709Z" fill="white"/>
</mask>
<g mask="url(#mask4_1433_20006)">
<mask id="mask5_1433_20006" style="mask-type:luminance" maskUnits="userSpaceOnUse" x="-2" y="-2" width="39" height="20">
<path d="M8.81636 -1.24872H36.8309L32.4346 13.4246C31.6946 15.8942 29.4245 17.5854 26.8494 17.5854H-1.1651L3.23121 2.91216C3.97115 0.442532 6.24131 -1.24872 8.81636 -1.24872Z" fill="white"/>
</mask>
<g mask="url(#mask5_1433_20006)">
<mask id="mask6_1433_20006" style="mask-type:luminance" maskUnits="userSpaceOnUse" x="11" y="6" width="24" height="20">
<path d="M11.831 25.3442H34.4907V6.47618H11.831V25.3442Z" fill="white"/>
</mask>
<g mask="url(#mask6_1433_20006)">
<path d="M-2.51929 -2.60256H38.185V18.9399H-2.51929V-2.60256Z" fill="#5D6F92"/>
</g>
</g>
</g>
</g>
</g>
<mask id="mask7_1433_20006" style="mask-type:luminance" maskUnits="userSpaceOnUse" x="0" y="5" width="131" height="22">
<path d="M0.185181 26.9688H130.185V5.03125H0.185181V26.9688Z" fill="white"/>
</mask>
<g mask="url(#mask7_1433_20006)">
<mask id="mask8_1433_20006" style="mask-type:luminance" maskUnits="userSpaceOnUse" x="1" y="6" width="21" height="20">
<path d="M1.53949 25.3438H21.4006V6.47569H1.53949V25.3438Z" fill="white"/>
</mask>
<g mask="url(#mask8_1433_20006)">
<g opacity="0.904">
<mask id="mask9_1433_20006" style="mask-type:luminance" maskUnits="userSpaceOnUse" x="1" y="6" width="21" height="20">
<path d="M6.10423 6.47882H16.5724C19.2272 6.47882 21.3794 8.63375 21.3794 11.292C21.3794 11.7604 21.3111 12.2264 21.1767 12.675L17.3902 25.313H4.95567C3.10885 25.313 1.61169 23.8139 1.61169 21.9647C1.61169 21.6388 1.6592 21.3147 1.75272 21.0026L6.10423 6.47882Z" fill="white"/>
</mask>
<g mask="url(#mask9_1433_20006)">
<mask id="mask10_1433_20006" style="mask-type:luminance" maskUnits="userSpaceOnUse" x="1" y="6" width="21" height="20">
<path d="M1.53961 25.6143H21.8521V6.38509H1.53961V25.6143Z" fill="white"/>
</mask>
<g mask="url(#mask10_1433_20006)">
<path d="M0.25769 5.12449H22.7337V26.667H0.25769V5.12449Z" fill="#5D6F92"/>
</g>
</g>
<mask id="mask11_1433_20006" style="mask-type:luminance" maskUnits="userSpaceOnUse" x="1" y="6" width="21" height="20">
<path d="M6.10423 6.47882H16.5724C19.2272 6.47882 21.3794 8.63375 21.3794 11.292C21.3794 11.7604 21.3111 12.2264 21.1767 12.675L17.3902 25.313H4.95567C3.10885 25.313 1.61169 23.8139 1.61169 21.9647C1.61169 21.6388 1.6592 21.3147 1.75272 21.0026L6.10423 6.47882Z" fill="white"/>
</mask>
<g mask="url(#mask11_1433_20006)">
<mask id="mask12_1433_20006" style="mask-type:luminance" maskUnits="userSpaceOnUse" x="1" y="6" width="21" height="20">
<path d="M1.53961 25.6143H21.8521V6.38509H1.53961V25.6143Z" fill="white"/>
</mask>
<g mask="url(#mask12_1433_20006)">
<mask id="mask13_1433_20006" style="mask-type:luminance" maskUnits="userSpaceOnUse" x="-13" y="-2" width="39" height="20">
<path d="M-12.634 17.6699H25.4632V-1.28841H-12.634V17.6699Z" fill="white"/>
</mask>
<g mask="url(#mask13_1433_20006)">
<mask id="mask14_1433_20006" style="mask-type:luminance" maskUnits="userSpaceOnUse" x="-13" y="-2" width="39" height="20">
<path d="M-2.57389 -1.24921H25.4406L21.0443 13.4241C20.8126 14.1974 20.3676 15.5844 19.7093 17.585C17.7862 17.585 16.3695 17.585 15.4592 17.585H-12.5554L-8.15904 2.91167C-7.41911 0.442044 -5.14894 -1.24921 -2.57389 -1.24921Z" fill="white"/>
</mask>
<g mask="url(#mask14_1433_20006)">
<mask id="mask15_1433_20006" style="mask-type:luminance" maskUnits="userSpaceOnUse" x="1" y="6" width="21" height="20">
<path d="M1.53967 25.3433H21.4008V6.47521H1.53967V25.3433Z" fill="white"/>
</mask>
<g mask="url(#mask15_1433_20006)">
<path d="M-13.9094 -2.60354H26.7949V18.939H-13.9094V-2.60354Z" fill="#5D6F92"/>
</g>
</g>
</g>
</g>
</g>
<mask id="mask16_1433_20006" style="mask-type:luminance" maskUnits="userSpaceOnUse" x="11" y="7" width="11" height="19">
<path d="M19.079 7.15615C20.4652 8.00063 21.3909 9.52756 21.3909 11.271C21.3909 11.7394 21.3226 12.2054 21.1882 12.6541L17.4017 25.292H11.8632L16.2595 10.6187C16.7149 9.09872 17.75 7.8736 19.079 7.15615Z" fill="white"/>
</mask>
<g mask="url(#mask16_1433_20006)">
<mask id="mask17_1433_20006" style="mask-type:luminance" maskUnits="userSpaceOnUse" x="1" y="6" width="21" height="20">
<path d="M1.53955 25.6147H21.8521V6.38558H1.53955V25.6147Z" fill="white"/>
</mask>
<g mask="url(#mask17_1433_20006)">
<path d="M10.5092 5.80183H22.7452V26.646H10.5092V5.80183Z" fill="#5D6F92"/>
</g>
</g>
</g>
</g>
</g>
<mask id="mask18_1433_20006" style="mask-type:luminance" maskUnits="userSpaceOnUse" x="38" y="11" width="15" height="11">
<path d="M47.64 21.4932V20.724H47.791C47.9521 20.724 48.0943 20.7146 48.2177 20.6958C48.341 20.677 48.443 20.6393 48.5235 20.5829C48.6041 20.5264 48.6645 20.4453 48.7048 20.3394C48.745 20.2336 48.7652 20.0936 48.7652 19.9196V12.6021L45.6463 21.4932H44.5966L41.3267 12.6021V19.7855C41.3267 19.9925 41.3532 20.1571 41.406 20.2795C41.4589 20.4018 41.5344 20.4959 41.6326 20.5617C41.7308 20.6276 41.8503 20.6711 41.9913 20.6923C42.1323 20.7134 42.2934 20.724 42.4746 20.724H42.5652V21.4932H38.7289V20.724H39.3784C39.4891 20.724 39.5924 20.7146 39.688 20.6958C39.7837 20.677 39.868 20.6382 39.941 20.5794C40.014 20.5206 40.0706 20.4335 40.1109 20.3183C40.1512 20.203 40.1713 20.0513 40.1713 19.8631V12.8208C40.1713 12.628 40.1512 12.4739 40.1109 12.3586C40.0706 12.2434 40.014 12.1552 39.941 12.094C39.868 12.0329 39.7837 11.9917 39.688 11.9705C39.5924 11.9494 39.4891 11.9388 39.3784 11.9388H38.7289V11.1767H43.1844L45.752 18.1555L48.2139 11.1767H52.5863V11.9388H51.9369C51.8261 11.9388 51.7229 11.9494 51.6273 11.9705C51.5316 11.9917 51.4485 12.0352 51.3781 12.1011C51.3076 12.1669 51.2522 12.261 51.2119 12.3833C51.1716 12.5056 51.1515 12.6703 51.1515 12.8773V19.7855C51.1515 19.9925 51.1716 20.1571 51.2119 20.2795C51.2522 20.4018 51.3076 20.4959 51.3781 20.5617C51.4485 20.6276 51.5316 20.6711 51.6273 20.6923C51.7229 20.7134 51.8261 20.724 51.9369 20.724H52.5863V21.4932H47.64Z" fill="white"/>
</mask>
<g mask="url(#mask18_1433_20006)">
<mask id="mask19_1433_20006" style="mask-type:luminance" maskUnits="userSpaceOnUse" x="0" y="5" width="131" height="22">
<path d="M0.185181 26.9692H130.185V5.03174H0.185181V26.9692Z" fill="white"/>
</mask>
<g mask="url(#mask19_1433_20006)">
<path d="M37.3749 9.82285H53.9406V22.8477H37.3749V9.82285Z" fill="#5D6F92"/>
</g>
</g>
<mask id="mask20_1433_20006" style="mask-type:luminance" maskUnits="userSpaceOnUse" x="52" y="13" width="9" height="9">
<path d="M56.569 14.4443C56.3727 14.4443 56.2078 14.4831 56.0744 14.5607C55.941 14.6383 55.834 14.7465 55.7534 14.8853C55.6729 15.0241 55.6162 15.1887 55.5835 15.3793C55.5508 15.5698 55.5344 15.7779 55.5344 16.0038C54.8397 16.0038 54.3173 15.9308 53.9674 15.785C53.6175 15.6392 53.4426 15.3898 53.4426 15.037C53.4426 14.7736 53.5269 14.5478 53.6956 14.3596C53.8642 14.1714 54.0933 14.0185 54.3828 13.9009C54.6723 13.7833 55.0096 13.6975 55.3947 13.6434C55.7799 13.5893 56.1914 13.5622 56.6294 13.5622C57.1731 13.5622 57.6476 13.6058 58.0529 13.6928C58.4582 13.7798 58.7955 13.9198 59.0649 14.1126C59.3342 14.3055 59.5368 14.5584 59.6728 14.8712C59.8087 15.184 59.8767 15.5662 59.8767 16.0179V19.7013C59.8767 19.8989 59.893 20.0635 59.9257 20.1953C59.9585 20.327 60.0101 20.4316 60.0806 20.5093C60.151 20.5869 60.2467 20.6422 60.3675 20.6751C60.4883 20.708 60.6343 20.7245 60.8055 20.7245H60.8659V21.4936H57.9887L57.664 20.4987H57.5281C57.3569 20.6916 57.1958 20.8597 57.0448 21.0032C56.8937 21.1467 56.7326 21.2655 56.5615 21.3596C56.3903 21.4537 56.1977 21.523 55.9837 21.5677C55.7698 21.6124 55.5168 21.6348 55.2248 21.6348C54.8825 21.6348 54.564 21.5877 54.2695 21.4936C53.975 21.3996 53.7182 21.2549 53.4992 21.0597C53.2802 20.8644 53.1078 20.6198 52.9819 20.3258C52.8561 20.0318 52.7932 19.6848 52.7932 19.285C52.7932 18.4994 53.0814 17.9184 53.6578 17.5421C54.2343 17.1657 55.1015 16.9611 56.2594 16.9281L57.5281 16.8858V16.0884C57.5281 15.8485 57.518 15.6274 57.4979 15.4251C57.4777 15.2228 57.4349 15.0488 57.3695 14.903C57.304 14.7571 57.2071 14.6442 57.0787 14.5642C56.9504 14.4843 56.7805 14.4443 56.569 14.4443ZM55.1946 19.3414C55.1946 19.7554 55.2651 20.0659 55.406 20.2729C55.547 20.4799 55.7685 20.5834 56.0706 20.5834C56.2921 20.5834 56.4922 20.5398 56.671 20.4528C56.8497 20.3658 57.0032 20.2423 57.1316 20.0824C57.26 19.9224 57.3582 19.7284 57.4261 19.5002C57.4941 19.272 57.5281 19.0168 57.5281 18.7346V17.6479L56.8333 17.6902C56.5262 17.7043 56.2669 17.7502 56.0555 17.8278C55.844 17.9055 55.6754 18.0125 55.5495 18.1489C55.4237 18.2853 55.333 18.4523 55.2777 18.6499C55.2223 18.8475 55.1946 19.078 55.1946 19.3414Z" fill="white"/>
</mask>
<g mask="url(#mask20_1433_20006)">
<mask id="mask21_1433_20006" style="mask-type:luminance" maskUnits="userSpaceOnUse" x="0" y="5" width="131" height="22">
<path d="M0.185181 26.9692H130.185V5.03174H0.185181V26.9692Z" fill="white"/>
</mask>
<g mask="url(#mask21_1433_20006)">
<path d="M51.4391 12.2084H62.2202V22.9893H51.4391V12.2084Z" fill="#5D6F92"/>
</g>
</g>
<mask id="mask22_1433_20006" style="mask-type:luminance" maskUnits="userSpaceOnUse" x="62" y="9" width="3" height="4">
<path d="M62.1852 11.2437C62.1852 11.0104 62.2192 10.8099 62.2872 10.6424C62.3552 10.4749 62.4483 10.3388 62.5666 10.2341C62.6849 10.1294 62.8234 10.0517 62.9819 10.0008C63.1405 9.94996 63.313 9.92453 63.4992 9.92453C63.6754 9.92453 63.8441 9.94996 64.0052 10.0008C64.1663 10.0517 64.3073 10.1294 64.4281 10.2341C64.5489 10.3388 64.6458 10.4749 64.7188 10.6424C64.7919 10.8099 64.8283 11.0104 64.8283 11.2437C64.8283 11.471 64.7919 11.6684 64.7188 11.8359C64.6458 12.0034 64.5489 12.141 64.4281 12.2487C64.3073 12.3564 64.1663 12.4372 64.0052 12.491C63.8441 12.5449 63.6754 12.5718 63.4992 12.5718C63.313 12.5718 63.1405 12.5449 62.9819 12.491C62.8234 12.4372 62.6849 12.3564 62.5666 12.2487C62.4483 12.141 62.3552 12.0034 62.2872 11.8359C62.2192 11.6684 62.1852 11.471 62.1852 11.2437Z" fill="white"/>
</mask>
<g mask="url(#mask22_1433_20006)">
<mask id="mask23_1433_20006" style="mask-type:luminance" maskUnits="userSpaceOnUse" x="0" y="5" width="131" height="22">
<path d="M0.18512 26.9692H130.185V5.03174H0.18512V26.9692Z" fill="white"/>
</mask>
<g mask="url(#mask23_1433_20006)">
<path d="M60.8312 8.57069H66.1826V13.9263H60.8312V8.57069Z" fill="#5D6F92"/>
</g>
</g>
<mask id="mask24_1433_20006" style="mask-type:luminance" maskUnits="userSpaceOnUse" x="61" y="13" width="6" height="9">
<path d="M61.3019 20.724C61.4177 20.724 61.5398 20.7134 61.6682 20.6923C61.7966 20.6711 61.9149 20.6276 62.0231 20.5617C62.1313 20.4959 62.222 20.4018 62.295 20.2795C62.368 20.1571 62.4045 19.9925 62.4045 19.7855V15.3964C62.4045 15.2035 62.368 15.0495 62.295 14.9342C62.222 14.819 62.1301 14.7296 62.0193 14.6661C61.9086 14.6026 61.789 14.5614 61.6606 14.5426C61.5322 14.5238 61.4127 14.5144 61.3019 14.5144H61.1207V13.7452H64.753V19.7855C64.753 19.9925 64.7895 20.1571 64.8625 20.2795C64.9355 20.4018 65.0262 20.4959 65.1344 20.5617C65.2426 20.6276 65.3622 20.6711 65.4931 20.6923C65.624 20.7134 65.7448 20.724 65.8556 20.724H66.0368V21.4932H61.1207V20.724H61.3019Z" fill="white"/>
</mask>
<g mask="url(#mask24_1433_20006)">
<mask id="mask25_1433_20006" style="mask-type:luminance" maskUnits="userSpaceOnUse" x="0" y="5" width="131" height="22">
<path d="M0.185181 26.9692H130.185V5.03174H0.185181V26.9692Z" fill="white"/>
</mask>
<g mask="url(#mask25_1433_20006)">
<path d="M59.7664 12.3914H67.3909V22.8477H59.7664V12.3914Z" fill="#5D6F92"/>
</g>
</g>
<mask id="mask26_1433_20006" style="mask-type:luminance" maskUnits="userSpaceOnUse" x="66" y="10" width="6" height="12">
<path d="M66.4476 20.724C66.5634 20.724 66.6855 20.7134 66.8139 20.6923C66.9422 20.6711 67.0605 20.6276 67.1688 20.5617C67.277 20.4959 67.3676 20.4018 67.4406 20.2795C67.5137 20.1571 67.5502 19.9925 67.5502 19.7855V12.1575C67.5502 11.9647 67.5137 11.8106 67.4406 11.6953C67.3676 11.5801 67.2758 11.4907 67.165 11.4272C67.0542 11.3637 66.9347 11.3225 66.8063 11.3037C66.6779 11.2849 66.5584 11.2755 66.4476 11.2755H66.2664V10.5134H69.8987V19.7855C69.8987 19.9925 69.9352 20.1571 70.0082 20.2795C70.0812 20.4018 70.1719 20.4959 70.2801 20.5617C70.3883 20.6276 70.5079 20.6711 70.6388 20.6923C70.7697 20.7134 70.8905 20.724 71.0013 20.724H71.1825V21.4932H66.2664V20.724H66.4476Z" fill="white"/>
</mask>
<g mask="url(#mask26_1433_20006)">
<mask id="mask27_1433_20006" style="mask-type:luminance" maskUnits="userSpaceOnUse" x="0" y="5" width="131" height="22">
<path d="M0.18512 26.9692H130.185V5.03174H0.18512V26.9692Z" fill="white"/>
</mask>
<g mask="url(#mask27_1433_20006)">
<path d="M64.9121 9.15955H72.5366V22.8477H64.9121V9.15955Z" fill="#5D6F92"/>
</g>
</g>
<mask id="mask28_1433_20006" style="mask-type:luminance" maskUnits="userSpaceOnUse" x="73" y="11" width="15" height="11">
<path d="M82.7796 21.4932V20.724H82.9306C83.0917 20.724 83.2339 20.7146 83.3573 20.6958C83.4806 20.677 83.5826 20.6393 83.6631 20.5829C83.7437 20.5264 83.8041 20.4453 83.8444 20.3394C83.8846 20.2336 83.9048 20.0936 83.9048 19.9196V12.6021L80.7859 21.4932H79.7362L76.4663 12.6021V19.7855C76.4663 19.9925 76.4927 20.1571 76.5456 20.2795C76.5985 20.4018 76.674 20.4959 76.7722 20.5617C76.8703 20.6276 76.9899 20.6711 77.1309 20.6923C77.2718 20.7134 77.4329 20.724 77.6142 20.724H77.7048V21.4932H73.8685V20.724H74.518C74.6287 20.724 74.7319 20.7146 74.8276 20.6958C74.9233 20.677 75.0076 20.6382 75.0806 20.5794C75.1536 20.5206 75.2102 20.4335 75.2505 20.3183C75.2908 20.203 75.3109 20.0513 75.3109 19.8631V12.8208C75.3109 12.628 75.2908 12.4739 75.2505 12.3586C75.2102 12.2434 75.1536 12.1552 75.0806 12.094C75.0076 12.0329 74.9233 11.9917 74.8276 11.9705C74.7319 11.9494 74.6287 11.9388 74.518 11.9388H73.8685V11.1767H78.324L80.8916 18.1555L83.3535 11.1767H87.7259V11.9388H87.0765C86.9657 11.9388 86.8625 11.9494 86.7669 11.9705C86.6712 11.9917 86.5881 12.0352 86.5177 12.1011C86.4472 12.1669 86.3918 12.261 86.3515 12.3833C86.3112 12.5056 86.2911 12.6703 86.2911 12.8773V19.7855C86.2911 19.9925 86.3112 20.1571 86.3515 20.2795C86.3918 20.4018 86.4472 20.4959 86.5177 20.5617C86.5881 20.6276 86.6712 20.6711 86.7669 20.6923C86.8625 20.7134 86.9657 20.724 87.0765 20.724H87.7259V21.4932H82.7796Z" fill="white"/>
</mask>
<g mask="url(#mask28_1433_20006)">
<mask id="mask29_1433_20006" style="mask-type:luminance" maskUnits="userSpaceOnUse" x="0" y="5" width="131" height="22">
<path d="M0.18512 26.9692H130.185V5.03174H0.18512V26.9692Z" fill="white"/>
</mask>
<g mask="url(#mask29_1433_20006)">
<path d="M72.5144 9.82285H89.0801V22.8477H72.5144V9.82285Z" fill="#5D6F92"/>
</g>
</g>
<mask id="mask30_1433_20006" style="mask-type:luminance" maskUnits="userSpaceOnUse" x="87" y="13" width="9" height="9">
<path d="M91.9728 21.6348C91.3184 21.6348 90.7406 21.5454 90.2397 21.3666C89.7388 21.1879 89.3197 20.9291 88.9824 20.5904C88.6451 20.2517 88.3908 19.8366 88.2197 19.345C88.0485 18.8534 87.9629 18.2924 87.9629 17.662C87.9629 16.9846 88.0485 16.3895 88.2197 15.8767C88.3908 15.364 88.64 14.9359 88.9673 14.5925C89.2945 14.2491 89.696 13.9915 90.1718 13.8198C90.6476 13.6481 91.19 13.5622 91.7991 13.5622C92.358 13.5622 92.8614 13.6363 93.3095 13.7845C93.7575 13.9327 94.1377 14.1526 94.4498 14.4443C94.762 14.7359 95.0011 15.0982 95.1672 15.531C95.3333 15.9638 95.4165 16.4671 95.4165 17.041V17.782H90.3492C90.3643 18.2665 90.421 18.6828 90.5192 19.0309C90.6173 19.3791 90.7533 19.666 90.927 19.8918C91.1007 20.1176 91.3121 20.2846 91.5613 20.3928C91.8105 20.501 92.0962 20.5551 92.4184 20.5551C92.6852 20.5551 92.9319 20.5257 93.1585 20.4669C93.385 20.4081 93.5902 20.3258 93.774 20.22C93.9577 20.1141 94.1188 19.9894 94.2572 19.846C94.3957 19.7025 94.5103 19.5484 94.6008 19.3838C94.8778 19.5249 95.0162 19.7601 95.0162 20.0894C95.0162 20.2964 94.9558 20.4928 94.835 20.6786C94.7141 20.8644 94.5279 21.0279 94.2761 21.169C94.0244 21.3102 93.7085 21.4231 93.3284 21.5078C92.9483 21.5924 92.4964 21.6348 91.9728 21.6348ZM91.8294 14.5007C91.3964 14.5007 91.0528 14.7007 90.7986 15.1005C90.5443 15.5004 90.4046 16.0861 90.3794 16.8576H93.0527C93.0527 16.4906 93.0301 16.1613 92.9848 15.8697C92.9394 15.578 92.8677 15.331 92.7695 15.1288C92.6714 14.9265 92.5456 14.7712 92.392 14.663C92.2384 14.5548 92.0509 14.5007 91.8294 14.5007Z" fill="white"/>
</mask>
<g mask="url(#mask30_1433_20006)">
<mask id="mask31_1433_20006" style="mask-type:luminance" maskUnits="userSpaceOnUse" x="0" y="5" width="131" height="22">
<path d="M0.185242 26.9692H130.185V5.03174H0.185242V26.9692Z" fill="white"/>
</mask>
<g mask="url(#mask31_1433_20006)">
<path d="M86.6089 12.2084H96.7709V22.9893H86.6089V12.2084Z" fill="#5D6F92"/>
</g>
</g>
<mask id="mask32_1433_20006" style="mask-type:luminance" maskUnits="userSpaceOnUse" x="95" y="11" width="7" height="11">
<path d="M99.9958 20.47C100.197 20.47 100.39 20.457 100.573 20.4312C100.757 20.4053 100.93 20.3735 101.091 20.3359V21.2744C101.01 21.312 98.2387 21.5955 97.9567 21.5179C97.6748 21.4402 97.4357 21.3109 97.2394 21.1298C97.0431 20.9486 96.892 20.7134 96.7863 20.4241C96.6805 20.1348 96.6277 19.7785 96.6277 19.3551V14.7331H95.4647V13.9922C95.7969 13.9922 96.094 13.931 96.3559 13.8087C96.6176 13.6864 96.8266 13.5453 96.9826 13.3853C97.2998 13.0749 97.5364 12.5974 97.6925 11.9529H98.9763V13.7452H100.955V14.7331H98.9763V19.2069C98.9763 19.6444 99.0555 19.9643 99.2141 20.1666C99.3728 20.3688 99.6333 20.47 99.9958 20.47Z" fill="white"/>
</mask>
<g mask="url(#mask32_1433_20006)">
<mask id="mask33_1433_20006" style="mask-type:luminance" maskUnits="userSpaceOnUse" x="0" y="5" width="131" height="22">
<path d="M0.185181 26.9692H130.185V5.03174H0.185181V26.9692Z" fill="white"/>
</mask>
<g mask="url(#mask33_1433_20006)">
<path d="M94.1105 10.599H102.445V22.8857H94.1105V10.599Z" fill="#5D6F92"/>
</g>
</g>
<mask id="mask34_1433_20006" style="mask-type:luminance" maskUnits="userSpaceOnUse" x="101" y="13" width="8" height="9">
<path d="M106.576 21.4932H101.411V20.724H101.456C101.632 20.724 101.794 20.7123 101.94 20.6887C102.086 20.6652 102.211 20.617 102.317 20.5441C102.423 20.4712 102.505 20.3665 102.563 20.2301C102.62 20.0936 102.649 19.9125 102.649 19.6867V15.4952C102.649 15.2835 102.623 15.113 102.57 14.9836C102.517 14.8543 102.442 14.7543 102.344 14.6837C102.245 14.6132 102.128 14.5673 101.992 14.5461C101.856 14.525 101.703 14.5144 101.532 14.5144H101.486V13.7452H104.613L104.922 14.8742H104.998C105.099 14.6579 105.209 14.4685 105.33 14.3062C105.451 14.1439 105.596 14.0087 105.764 13.9005C105.933 13.7923 106.132 13.7111 106.361 13.657C106.59 13.6029 106.863 13.5759 107.18 13.5759C107.79 13.5759 108.238 13.6758 108.525 13.8758C108.812 14.0757 108.955 14.3662 108.955 14.7472C108.955 15.1894 108.784 15.5329 108.442 15.7775C108.099 16.0221 107.616 16.1444 106.992 16.1444C106.992 15.9468 106.98 15.7728 106.958 15.6222C106.935 15.4717 106.895 15.347 106.837 15.2482C106.779 15.1495 106.701 15.0742 106.603 15.0224C106.505 14.9707 106.382 14.9448 106.236 14.9448C106.055 14.9448 105.899 14.9872 105.768 15.0718C105.637 15.1565 105.527 15.2659 105.436 15.4C105.345 15.534 105.271 15.6857 105.213 15.8551C105.155 16.0245 105.11 16.195 105.077 16.3667C105.045 16.5384 105.023 16.7019 105.013 16.8571C105.003 17.0123 104.998 17.1464 104.998 17.2593V19.7573C104.998 19.969 105.026 20.1395 105.081 20.2689C105.136 20.3982 105.212 20.4959 105.308 20.5617C105.403 20.6276 105.518 20.6711 105.651 20.6923C105.785 20.7134 105.927 20.724 106.078 20.724H106.576V21.4932Z" fill="white"/>
</mask>
<g mask="url(#mask34_1433_20006)">
<mask id="mask35_1433_20006" style="mask-type:luminance" maskUnits="userSpaceOnUse" x="0" y="5" width="131" height="22">
<path d="M0.185181 26.9692H130.185V5.03174H0.185181V26.9692Z" fill="white"/>
</mask>
<g mask="url(#mask35_1433_20006)">
<path d="M100.057 12.222H110.309V22.8477H100.057V12.222Z" fill="#5D6F92"/>
</g>
</g>
<mask id="mask36_1433_20006" style="mask-type:luminance" maskUnits="userSpaceOnUse" x="110" y="9" width="4" height="4">
<path d="M110.428 11.2656C110.428 11.0323 110.462 10.8319 110.53 10.6644C110.598 10.4969 110.691 10.3608 110.81 10.2561C110.928 10.1514 111.066 10.0736 111.225 10.0228C111.384 9.97193 111.556 9.94651 111.742 9.94651C111.918 9.94651 112.087 9.97193 112.248 10.0228C112.409 10.0736 112.55 10.1514 112.671 10.2561C112.792 10.3608 112.889 10.4969 112.962 10.6644C113.035 10.8319 113.071 11.0323 113.071 11.2656C113.071 11.493 113.035 11.6904 112.962 11.8579C112.889 12.0254 112.792 12.163 112.671 12.2707C112.55 12.3784 112.409 12.4591 112.248 12.513C112.087 12.5668 111.918 12.5938 111.742 12.5938C111.556 12.5938 111.384 12.5668 111.225 12.513C111.066 12.4591 110.928 12.3784 110.81 12.2707C110.691 12.163 110.598 12.0254 110.53 11.8579C110.462 11.6904 110.428 11.493 110.428 11.2656Z" fill="white"/>
</mask>
<g mask="url(#mask36_1433_20006)">
<mask id="mask37_1433_20006" style="mask-type:luminance" maskUnits="userSpaceOnUse" x="0" y="5" width="131" height="22">
<path d="M0.185181 26.9688H130.185V5.03125H0.185181V26.9688Z" fill="white"/>
</mask>
<g mask="url(#mask37_1433_20006)">
<path d="M109.074 8.59218H114.425V13.9478H109.074V8.59218Z" fill="#5D6F92"/>
</g>
</g>
<mask id="mask38_1433_20006" style="mask-type:luminance" maskUnits="userSpaceOnUse" x="109" y="13" width="6" height="9">
<path d="M109.545 20.724C109.66 20.724 109.782 20.7134 109.911 20.6923C110.039 20.6711 110.158 20.6276 110.266 20.5617C110.374 20.4959 110.465 20.4018 110.538 20.2795C110.611 20.1571 110.647 19.9925 110.647 19.7855V15.3964C110.647 15.2035 110.611 15.0495 110.538 14.9342C110.465 14.819 110.373 14.7296 110.262 14.6661C110.151 14.6026 110.032 14.5614 109.903 14.5426C109.775 14.5238 109.655 14.5144 109.545 14.5144H109.363V13.7452H112.996V19.7855C112.996 19.9925 113.032 20.1571 113.105 20.2795C113.178 20.4018 113.269 20.4959 113.377 20.5617C113.485 20.6276 113.605 20.6711 113.736 20.6923C113.867 20.7134 113.987 20.724 114.098 20.724H114.28V21.4932H109.363V20.724H109.545Z" fill="white"/>
</mask>
<g mask="url(#mask38_1433_20006)">
<mask id="mask39_1433_20006" style="mask-type:luminance" maskUnits="userSpaceOnUse" x="0" y="5" width="131" height="22">
<path d="M0.185181 26.9692H130.185V5.03174H0.185181V26.9692Z" fill="white"/>
</mask>
<g mask="url(#mask39_1433_20006)">
<path d="M108.009 12.3914H115.634V22.8477H108.009V12.3914Z" fill="#5D6F92"/>
</g>
</g>
<mask id="mask40_1433_20006" style="mask-type:luminance" maskUnits="userSpaceOnUse" x="114" y="13" width="8" height="9">
<path d="M118.179 21.6348C117.61 21.6348 117.09 21.5666 116.62 21.4301C116.149 21.2937 115.745 21.0679 115.408 20.7527C115.07 20.4375 114.809 20.0259 114.622 19.5178C114.436 19.0098 114.343 18.3865 114.343 17.6479C114.343 16.867 114.44 16.2154 114.634 15.6933C114.827 15.1711 115.094 14.7524 115.434 14.4372C115.774 14.122 116.175 13.8974 116.639 13.7633C117.102 13.6293 117.6 13.5622 118.134 13.5622C118.632 13.5622 119.073 13.601 119.455 13.6787C119.838 13.7563 120.158 13.8633 120.414 13.9997C120.671 14.1362 120.866 14.2973 121 14.4831C121.133 14.6689 121.2 14.8677 121.2 15.0794C121.2 15.2346 121.171 15.3863 121.113 15.5345C121.055 15.6827 120.952 15.8132 120.803 15.9261C120.655 16.039 120.451 16.1308 120.192 16.2013C119.932 16.2719 119.601 16.3072 119.199 16.3072C119.199 16.0578 119.182 15.8203 119.149 15.5945C119.117 15.3687 119.063 15.1711 118.987 15.0017C118.912 14.8324 118.81 14.6971 118.681 14.596C118.553 14.4949 118.391 14.4443 118.194 14.4443C117.968 14.4443 117.765 14.4949 117.586 14.596C117.408 14.6971 117.254 14.87 117.126 15.1146C116.997 15.3593 116.899 15.6862 116.831 16.0955C116.763 16.5048 116.729 17.0175 116.729 17.6338C116.729 18.6123 116.873 19.3438 117.16 19.8283C117.447 20.3129 117.915 20.5551 118.564 20.5551C118.831 20.5551 119.082 20.5257 119.316 20.4669C119.55 20.4081 119.762 20.3258 119.954 20.22C120.145 20.1141 120.312 19.9894 120.456 19.846C120.599 19.7025 120.717 19.5484 120.807 19.3838C120.933 19.4543 121.026 19.5496 121.087 19.6696C121.147 19.7895 121.177 19.9154 121.177 20.0471C121.177 20.2305 121.119 20.4164 121.003 20.6045C120.888 20.7927 120.708 20.9632 120.463 21.1161C120.219 21.269 119.908 21.3937 119.531 21.4901C119.153 21.5865 118.703 21.6348 118.179 21.6348Z" fill="white"/>
</mask>
<g mask="url(#mask40_1433_20006)">
<mask id="mask41_1433_20006" style="mask-type:luminance" maskUnits="userSpaceOnUse" x="0" y="5" width="131" height="22">
<path d="M0.185059 26.9692H130.185V5.03174H0.185059V26.9692Z" fill="white"/>
</mask>
<g mask="url(#mask41_1433_20006)">
<path d="M112.988 12.2084H122.554V22.9893H112.988V12.2084Z" fill="#5D6F92"/>
</g>
</g>
<mask id="mask42_1433_20006" style="mask-type:luminance" maskUnits="userSpaceOnUse" x="121" y="13" width="8" height="9">
<path d="M125.039 21.6348C124.48 21.6348 124.003 21.5924 123.608 21.5078C123.213 21.4231 122.891 21.3055 122.641 21.1549C122.392 21.0044 122.211 20.8256 122.098 20.6186C121.984 20.4117 121.928 20.1882 121.928 19.9483C121.928 19.7131 121.977 19.5237 122.075 19.3802C122.173 19.2368 122.296 19.125 122.445 19.0451C122.593 18.9651 122.751 18.9122 122.917 18.8863C123.083 18.8604 123.234 18.8475 123.37 18.8475C123.37 19.1486 123.41 19.4191 123.491 19.659C123.571 19.8989 123.685 20.1023 123.831 20.2694C123.977 20.4364 124.152 20.5645 124.356 20.6539C124.559 20.7433 124.787 20.788 125.039 20.788C125.306 20.788 125.536 20.7621 125.73 20.7104C125.924 20.6586 126.082 20.5869 126.206 20.4952C126.329 20.4034 126.421 20.2976 126.481 20.1776C126.542 20.0577 126.572 19.9318 126.572 19.8001C126.572 19.6402 126.541 19.4979 126.478 19.3732C126.415 19.2485 126.31 19.1309 126.164 19.0204C126.018 18.9098 125.823 18.8016 125.579 18.6958C125.335 18.5899 125.031 18.4782 124.669 18.3606C124.251 18.2242 123.882 18.0795 123.563 17.9266C123.243 17.7737 122.974 17.5997 122.755 17.4044C122.536 17.2092 122.369 16.9858 122.256 16.7341C122.143 16.4824 122.086 16.1943 122.086 15.8697C122.086 15.4839 122.166 15.1476 122.324 14.8606C122.483 14.5736 122.708 14.3349 123 14.1444C123.292 13.9539 123.642 13.8116 124.05 13.7175C124.458 13.6234 124.911 13.5763 125.409 13.5763C125.897 13.5763 126.313 13.6152 126.655 13.6928C126.997 13.7704 127.277 13.8727 127.493 13.9997C127.71 14.1267 127.868 14.2702 127.969 14.4302C128.07 14.5901 128.12 14.7524 128.12 14.9171C128.12 15.2417 127.998 15.4886 127.754 15.658C127.51 15.8273 127.106 15.912 126.542 15.912C126.542 15.4322 126.427 15.0594 126.198 14.7936C125.969 14.5278 125.631 14.3949 125.182 14.3949C125.016 14.3949 124.856 14.4137 124.703 14.4513C124.549 14.489 124.416 14.5454 124.303 14.6207C124.189 14.696 124.099 14.7889 124.031 14.8994C123.963 15.01 123.929 15.1405 123.929 15.2911C123.929 15.4463 123.96 15.5851 124.023 15.7074C124.086 15.8297 124.197 15.9461 124.356 16.0567C124.514 16.1672 124.729 16.2789 125.001 16.3918C125.273 16.5048 125.62 16.6294 126.043 16.7658C126.386 16.8787 126.702 17.0069 126.991 17.1504C127.281 17.2939 127.53 17.4585 127.739 17.6444C127.948 17.8302 128.11 18.0419 128.226 18.2794C128.342 18.517 128.4 18.7887 128.4 19.0945C128.4 19.4943 128.325 19.8518 128.177 20.167C128.028 20.4822 127.81 20.748 127.524 20.9644C127.237 21.1808 126.884 21.3466 126.466 21.4619C126.048 21.5771 125.573 21.6348 125.039 21.6348Z" fill="white"/>
</mask>
<g mask="url(#mask42_1433_20006)">
<mask id="mask43_1433_20006" style="mask-type:luminance" maskUnits="userSpaceOnUse" x="0" y="5" width="131" height="22">
<path d="M0.185059 26.9692H130.185V5.03174H0.185059V26.9692Z" fill="white"/>
</mask>
<g mask="url(#mask43_1433_20006)">
<path d="M120.573 12.2225H129.754V22.9893H120.573V12.2225Z" fill="#5D6F92"/>
</g>
</g>
</g>
<defs>
<clipPath id="clip0_1433_20006">
<rect width="130" height="32" fill="white"/>
</clipPath>
</defs>
</svg>
