<?xml version="1.0" encoding="utf-8"?>
<!-- Generator: Adobe Illustrator 27.5.0, SVG Export Plug-In . SVG Version: 6.00 Build 0)  -->
<svg version="1.1" id="Layer_1" xmlns="http://www.w3.org/2000/svg" xmlns:xlink="http://www.w3.org/1999/xlink" x="0px" y="0px"
	 viewBox="0 0 131 32" style="enable-background:new 0 0 131 32;" xml:space="preserve">
<style type="text/css">
	.st0{fill:#5D6F92;}
</style>
<g>
	<path class="st0" d="M35.5,18.2c-0.5-0.6-1-1.1-1.5-1.7c-1.2-1.4-2.1-2.9-2.7-4.6c-0.5-1.4-1.1-2.7-2-3.9c-1.7-2.2-3.9-3.5-6.5-3.5
		c-1.5,0-2.8,0.3-3.9,0.9c-1.5,0.8-2.8,1.9-3.9,3.2c-0.9,1-1.7,2.1-2.8,2.9c-1.1,0.8-2.3,1.5-3.5,2.1c-0.5,0.3-0.7,0.7-0.5,1.3
		c0.1,0.3,0.2,0.7,0.4,1c0.2,0.4,0.5,0.6,1,0.6c1.1,0,2.3,0,3.4-0.1c0.5,0,0.9-0.4,0.9-0.9c0-0.3,0-0.7,0-1c0-0.5,0.1-1.1,0.1-1.6
		c0.1-0.4,0.2-0.5,0.6-0.4c0.3,0.1,0.5,0.2,0.8,0.3c0.7,0.4,1.3,1,1.9,1.6c0.6,0.7,1.1,1.4,1.6,2.1c0.2,0.3,0.5,0.4,0.8,0.5
		c1.4,0.2,2.8,0.5,4.1,0.7c0.3,0.1,0.6,0,0.8-0.2c1-0.8,2.1-1.4,3.2-1.9c0.8-0.4,1.6-0.7,2.4-1c0.4-0.1,0.6,0,0.6,0.4
		c0,0.4,0,0.7,0,1.1c-0.1,0.7-0.2,1.5-0.3,2.2c-0.1,0.5,0.1,1,0.6,1.1c0.8,0.3,1.6,0.7,2.5,1c0.4,0.2,0.8,0.1,1.2-0.3
		c0.2-0.2,0.5-0.5,0.7-0.7C36,19.2,36,18.7,35.5,18.2z M28.6,11.3c-0.6,1.8-2.6,2.6-4.3,1.7c-1.1-0.5-1.7-1.5-1.6-2.7
		c0.1-1.4,0.8-2.5,2.1-3c1-0.4,2-0.2,2.8,0.6C28.6,8.8,29.1,9.9,28.6,11.3z"/>
	<path class="st0" d="M50.1,10.3v9.7c-0.6,0-1.2,0-1.8,0c-0.1,0-0.2-0.1-0.2-0.2c-1.3-2.1-2.5-4.2-3.8-6.3c-0.1-0.1-0.1-0.2-0.2-0.4
		V20h-1.8v-9.7c0.3,0,0.7,0,1,0c0.4,0,0.8-0.1,1.1,0.1c0.3,0.2,0.4,0.6,0.6,0.9c1.1,1.8,2.1,3.5,3.2,5.3c0,0.1,0.1,0.2,0.2,0.3v-6.5
		H50.1z"/>
	<path class="st0" d="M65.3,16c-0.1-1.2-0.8-2.2-1.9-2.8c-1-0.5-2.6-0.4-3.3,0.7c0,0-0.1,0-0.1,0.1v-1h-1.6v8.8H60v-2.8
		c0.2,0.2,0.4,0.4,0.6,0.6c0.9,0.7,2.3,0.6,3.3-0.2C65,18.5,65.4,17.4,65.3,16z M62.4,18.2c-0.7,0.3-1.3,0.2-1.9-0.3
		c-0.6-0.6-0.8-1.3-0.6-2.1c0.2-0.8,0.7-1.2,1.5-1.3c0.9-0.1,1.8,0.6,1.9,1.6c0,0.1,0,0.2,0,0.3C63.5,17.3,63.2,17.9,62.4,18.2z"/>
	<path class="st0" d="M109,18.3c-0.4,0.5-0.8,0.8-1.4,1.1c-2.1,1.2-5.5,0.7-7-1.8c-1.6-2.8-0.1-6.4,3.1-7.2c1.7-0.4,3.3-0.2,4.7,1
		c0.1,0.1,0.2,0.2,0.3,0.2c0,0,0,0.1,0.1,0.1c0,0,0,0.1,0,0.1c-0.4,0.4-0.8,0.7-1.2,1.1c-0.8-0.8-1.7-1.2-2.8-1
		c-0.9,0.1-1.6,0.5-2.1,1.2c-1,1.3-0.8,3.3,0.4,4.4c1,0.9,3.3,1.3,4.8-0.4C108.2,17.5,108.6,17.9,109,18.3z"/>
	<path class="st0" d="M57.3,17.7c0-0.8,0-1.6-0.1-2.5c-0.1-1-0.6-1.7-1.6-2.1c-1-0.3-2-0.4-3,0c-0.6,0.2-1.1,0.6-1.4,1.1
		c0.4,0.3,0.8,0.6,1.3,0.9c0.1-0.1,0.1-0.1,0.1-0.2c0.5-0.5,1-0.7,1.7-0.6c0.7,0.1,1.2,0.7,1.1,1.4c-0.1,0-0.2-0.1-0.3-0.1
		c-0.8-0.2-1.6-0.3-2.5-0.1c-1.9,0.5-2.1,2.5-1.3,3.5c0.7,0.9,2.6,1.4,3.8,0.1c0.1-0.1,0.1-0.1,0.2-0.2c0,0,0,0,0.1,0v0.9h1.7
		C57.3,19.3,57.3,18.5,57.3,17.7z M55.4,17.7c-0.3,0.6-0.8,0.9-1.5,1c-0.1,0-0.3-0.1-0.5-0.1c-0.3-0.1-0.5-0.4-0.5-0.7
		c0-0.4,0.2-0.7,0.5-0.8c0.6-0.3,1.2-0.2,1.7,0C55.6,17.1,55.6,17.2,55.4,17.7z"/>
	<path class="st0" d="M115.9,15.6c0-1.4-0.7-2.2-2-2.5c-0.7-0.2-1.5-0.2-2.2,0c-0.8,0.2-1.4,0.6-1.9,1.2c0.4,0.3,0.9,0.6,1.3,0.9
		c0.5-0.6,1.1-0.9,1.9-0.8c0.7,0.1,1.2,0.7,1.1,1.4c-0.1,0-0.2,0-0.3-0.1c-0.7-0.2-1.5-0.3-2.2-0.1c-0.9,0.2-1.6,0.6-1.9,1.5
		c-0.3,0.8-0.1,1.6,0.5,2.2c0.8,0.8,2.5,1.2,3.6,0c0.1-0.1,0.1-0.1,0.3-0.3v1h1.7c0,0,0-0.1,0-0.1C115.9,18.5,116,17.1,115.9,15.6z
		 M114,17.8c-0.3,0.6-0.8,0.9-1.5,0.9c-0.1,0-0.3-0.1-0.5-0.1c-0.3-0.1-0.5-0.4-0.5-0.7c0-0.4,0.2-0.6,0.5-0.8
		c0.4-0.2,0.9-0.2,1.4-0.1c0.1,0,0.2,0.1,0.3,0.1C114.2,17.1,114.3,17.3,114,17.8z"/>
	<path class="st0" d="M83.5,16.9c0.1-0.8,0-1.5-0.3-2.2c-0.6-1.4-2.2-2.1-3.8-1.7c-2.6,0.6-3.4,3.6-2.1,5.5c1.1,1.5,3.4,2,4.9,0.9
		c0.5-0.3,0.9-0.7,1.2-1.3c-0.5-0.2-1-0.5-1.5-0.7c-0.7,1.1-1.7,1.1-2.5,0.8c-0.6-0.2-1-0.9-0.9-1.4H83.5z M80.3,14.4
		c0.8,0,1.4,0.5,1.5,1.2c0,0-0.1,0-0.1,0c-1,0-2,0-3,0C78.8,14.9,79.5,14.4,80.3,14.4z"/>
	<path class="st0" d="M88,13c-2.1,0-3.6,1.5-3.6,3.5c0,2.1,1.5,3.6,3.5,3.6c2.1,0,3.5-1.5,3.5-3.5C91.5,14.4,90,13,88,13z
		 M89.2,17.9c-0.6,0.5-1.2,0.6-1.9,0.3c-0.7-0.3-1-0.9-1.1-1.8c0-0.7,0.3-1.3,1-1.7c0.8-0.4,1.8-0.1,2.2,0.6
		C89.9,16.2,89.8,17.4,89.2,17.9z"/>
	<path class="st0" d="M69.7,13c-2.1,0-3.6,1.5-3.6,3.5c0,2.1,1.5,3.6,3.5,3.6c2.1,0,3.6-1.5,3.6-3.5C73.2,14.5,71.7,13,69.7,13z
		 M71.3,17.2c-0.2,0.8-1,1.3-1.7,1.2c-0.9-0.1-1.5-0.7-1.6-1.5c0-0.1,0-0.3,0-0.4c0-1,0.6-1.7,1.5-1.9c1-0.2,1.9,0.5,2,1.5
		C71.4,16.5,71.4,16.9,71.3,17.2z"/>
	<path class="st0" d="M98.7,19.9c0,0.1,0,0.1,0,0.2H97v-0.3c0-1.2,0-2.4,0-3.6c0-0.1,0-0.3,0-0.4c-0.1-0.5-0.2-0.9-0.8-1.1
		c-0.6-0.2-1.1,0-1.5,0.4c-0.4,0.4-0.5,0.9-0.5,1.5c0,1,0,2.1,0,3.1V20h-1.8V13h1.7v1.1c0.1-0.1,0.2-0.2,0.2-0.2
		C95,13,95.9,12.8,97,13c1,0.2,1.5,0.9,1.7,1.9c0,0.2,0.1,0.5,0.1,0.7C98.7,17.1,98.7,18.5,98.7,19.9z"/>
	<path class="st0" d="M118.8,14.4c0,1,0,1.9,0,2.9c0,0.1,0,0.3,0,0.4c0.1,0.5,0.3,0.7,0.8,0.7c0.1,0,0.2,0,0.4,0V20
		c-1.6,0.3-2.9-0.4-3-2.2c0-1.1,0-2.2,0-3.4v-0.4h-0.7v-1.5h0.7v-2.3h1.8v2.3h1.2v1.5h-1.2V14.4z"/>
	<rect x="74.1" y="10.3" class="st0" width="1.8" height="9.7"/>
	<path class="st0" d="M24.2,27.3c-0.8,0.3-1.5,0.2-2.2-0.4c-0.6,0.5-1.2,0.6-2,0.5c-0.2,0-0.4-0.1-0.6-0.3c-0.2-0.2-0.3-0.5-0.1-0.7
		c0.1-0.2,0.3-0.3,0.6-0.3c0.1,0,0.2,0.1,0.3,0.1c0.7,0.1,1.1-0.2,1.1-0.9c0-0.4,0-0.9,0-1.3c0-0.3,0.2-0.5,0.4-0.5
		c0.3-0.1,0.6,0.1,0.7,0.3c0,0.1,0.1,0.2,0.1,0.3c0,0.4,0,0.8,0,1.2c0,0.7,0.5,1.1,1.2,0.9c0,0,0,0,0,0c0.5-0.2,0.8-0.1,0.9,0.3
		C24.8,26.9,24.7,27.2,24.2,27.3z"/>
	<path class="st0" d="M17.7,22.7c-0.1,0.4-0.4,0.5-0.8,0.4c-0.9-0.2-1.8-0.4-2.7-0.6c-0.6-0.1-1.2,0-1.8,0c-0.6,0-0.9-0.4-0.7-0.9
		c0.1-0.2,0.3-0.4,0.6-0.4c0.2,0,0.4,0,0.6,0c0.2,0,0.3,0,0.5,0c1.4,0,2.7,0.3,4,0.7C17.6,22,17.8,22.3,17.7,22.7z"/>
	<path class="st0" d="M32.9,22c0,0.3-0.3,0.6-0.7,0.5c-1.5-0.2-2.9,0.1-4.3,0.5c-0.1,0-0.2,0.1-0.3,0.1c-0.4,0.1-0.7-0.1-0.8-0.4
		c-0.1-0.4,0.1-0.7,0.4-0.8c1-0.2,2-0.4,3-0.6c0.3-0.1,0.7,0,1.1-0.1c0.4,0,0.7,0,1.1,0.1C32.7,21.3,32.9,21.6,32.9,22z"/>
	<path class="st0" d="M17.7,24.8c0,0.3-0.3,0.6-0.6,0.6c0,0,0,0-0.1,0H16c-0.9,0-1.9,0.1-2.8,0.4c-0.4,0.1-0.7,0-0.8-0.4
		c-0.1-0.4,0-0.7,0.4-0.8c1.4-0.6,2.9-0.6,4.4-0.5C17.5,24.1,17.7,24.4,17.7,24.8z"/>
	<path class="st0" d="M32,25.4c-0.1,0.4-0.5,0.5-0.9,0.3c-0.8-0.3-1.7-0.4-2.5-0.4c-0.4,0-0.9,0-1.3,0c-0.4,0-0.6-0.3-0.6-0.6
		c0-0.3,0.2-0.6,0.6-0.7c0.4,0,0.8-0.1,1.2-0.1c1.1,0,2.1,0.2,3.1,0.5C32,24.7,32.2,25.1,32,25.4z"/>
	<path class="st0" d="M122.8,19.2c0,0.5-0.4,0.8-0.8,0.8c-0.5,0-0.9-0.4-0.9-0.8c0-0.5,0.4-0.8,0.9-0.8
		C122.4,18.4,122.8,18.7,122.8,19.2z"/>
	<path class="st0" d="M26.8,11.5c-0.5,0.5-1.4,0.4-2-0.1c-0.5-0.4-0.6-1.2-0.2-1.9c0.3-0.5,0.8-0.8,1.3-0.8c0.1,0,0.2,0,0.3,0.1
		c0.5,0.3,0.9,0.7,1,1.3C27.4,10.6,27.2,11.1,26.8,11.5z"/>
</g>
</svg>
