<svg width="131" height="32" viewBox="0 0 131 32" fill="none" xmlns="http://www.w3.org/2000/svg">
<g clip-path="url(#clip0_1433_20306)">
<path d="M6.09232 5.03708C3.71877 6.03288 1.59075 6.90592 1.35885 7.00141L0.935974 7.15146V13.9448V20.7381L2.38193 23.1935C3.18676 24.5576 4.33262 26.4946 4.91918 27.5041C5.51939 28.5135 6.0514 29.3866 6.10596 29.4548C6.16053 29.5093 7.08812 29.1956 8.17942 28.7454C10.9076 27.6405 14.4543 26.1809 16.5141 25.3351L18.2329 24.6258L18.5194 23.8483C18.6694 23.4254 19.1332 22.1158 19.5698 20.9563C19.9926 19.7968 20.4428 18.5009 20.5792 18.0917C20.7156 17.6824 21.1112 16.5775 21.4659 15.6363C21.8069 14.695 22.2298 13.5628 22.3798 13.1127L22.6527 12.2942L20.7975 9.12943L18.9286 5.97832L17.5372 5.50088C12.3809 3.70024 10.9349 3.2228 10.6894 3.23644C10.5393 3.25008 8.47952 4.05491 6.09232 5.03708ZM14.0315 5.58272C15.6411 6.15565 17.2098 6.7013 17.5099 6.81043C17.7964 6.90592 18.1511 7.15146 18.2739 7.32879C18.724 7.96993 21.2613 12.3487 21.2613 12.4715C21.2613 12.5943 20.9748 13.3991 20.17 15.5681C20.0199 15.9364 19.6243 17.0277 19.2833 17.9826C17.3735 23.3708 17.1962 23.821 17.0189 23.821C16.9234 23.821 12.8174 25.4716 11.7807 25.9354C11.5624 26.0308 10.5393 26.4537 9.52989 26.863C8.52044 27.2858 7.45644 27.7223 7.18361 27.8315L6.67889 28.0497L5.90135 26.7129C5.47847 25.9899 4.75549 24.7759 4.31897 24.0256C2.83209 21.5429 2.61383 21.1609 2.38193 20.7244C2.19096 20.3425 2.16368 19.5513 2.16368 14.2449C2.16368 10.9164 2.21824 8.13362 2.27281 8.05178C2.32737 7.96993 2.55927 7.83352 2.77753 7.75167C3.00943 7.66982 3.80061 7.35608 4.55087 7.04233C5.30114 6.72858 6.71981 6.14201 7.68833 5.74642C8.6705 5.35082 9.7345 4.90066 10.0755 4.73697C10.4166 4.58692 10.7849 4.49143 10.894 4.51871C11.0031 4.53235 12.4218 5.02344 14.0315 5.58272Z" fill="#5D6F92"/>
<path d="M52.2264 9.97557V11.2715H53.5906H54.9547V9.97557V8.67966H53.5906H52.2264V9.97557Z" fill="#5D6F92"/>
<path d="M61.025 8.82948C59.2789 9.23871 58.4332 10.2754 58.2695 12.2261L58.1876 13.1674L57.4919 13.2083L56.7962 13.2492V14.3405V15.4318L57.5192 15.4727L58.2286 15.5137V19.1968V22.8799L59.6336 22.839L61.025 22.798L61.0659 19.1558L61.0932 15.5137L62.089 15.4727L63.0712 15.4318L63.1121 14.3132L63.153 13.1947L62.089 13.1537L61.025 13.1128L61.0386 12.5262C61.0523 11.6532 61.4751 11.2712 62.4164 11.2712H63.1394V9.97533V8.67942L62.3618 8.69306C61.9253 8.70671 61.3251 8.76127 61.025 8.82948Z" fill="#5D6F92"/>
<path d="M64.7763 9.97557V11.2715H66.2087H67.6546L67.6137 10.0029L67.5728 8.74787L66.1814 8.70694L64.7763 8.66602V9.97557Z" fill="#5D6F92"/>
<path d="M87.4207 11.353C87.4207 12.6762 87.3797 13.7266 87.3252 13.6993C85.8656 12.9491 84.747 12.8263 83.4375 13.2628C82.3189 13.6311 81.2822 14.736 80.8866 16.0047C80.4501 17.3552 80.5183 19.2786 81.0366 20.4108C82.087 22.7161 84.6924 23.6574 86.7932 22.4842L87.5434 22.0614L87.5844 22.4297C87.6253 22.798 87.6253 22.798 88.8939 22.8389L90.1489 22.8798V15.9092V8.95219H88.7848H87.4207V11.353ZM86.3294 15.6636C87.1615 16.0865 87.4207 16.6322 87.4207 17.9554C87.4207 19.6742 86.7932 20.479 85.4427 20.479C84.2559 20.479 83.5329 19.7424 83.3693 18.3782C83.2192 17.0414 83.7648 15.9228 84.7606 15.5682C85.4973 15.309 85.6337 15.309 86.3294 15.6636Z" fill="#5D6F92"/>
<path d="M125.861 11.8437L125.82 13.1123L125.097 13.1532L124.374 13.1942L124.415 14.3127L124.456 15.4313L125.138 15.4995L125.82 15.5677L125.889 18.105C125.957 20.6286 125.957 20.6422 126.366 21.297C127.034 22.3883 128.644 22.9612 130.186 22.6748L130.663 22.5793V21.5016V20.4103H130.295C130.076 20.4103 129.681 20.3421 129.394 20.2603C128.617 20.0557 128.48 19.6055 128.48 17.3411V15.4995H129.708H130.936V14.34V13.1942L129.749 13.1532L128.549 13.1123L128.508 11.8437L128.467 10.5887H127.184H125.902L125.861 11.8437Z" fill="#5D6F92"/>
<path d="M45.8151 13.0037C44.8193 13.1401 44.5601 13.2356 43.9872 13.7403L43.3597 14.2996V13.7403V13.1674L41.9683 13.2083L40.5633 13.2492V18.0236V22.798L41.9683 22.839L43.3597 22.8799V19.797C43.3597 16.3867 43.4143 16.1002 44.1918 15.691C44.8057 15.3772 45.7469 15.3909 46.1971 15.7319C46.8109 16.1821 46.8927 16.6731 46.8927 19.8925L46.9064 22.8662H48.2841H49.6483L49.6073 19.074C49.5664 15.4454 49.5528 15.2681 49.2527 14.7088C48.9662 14.1632 48.4069 13.5766 47.8886 13.2629C47.6703 13.1401 46.1834 12.9491 45.8151 13.0037Z" fill="#5D6F92"/>
<path d="M73.2611 13.0442C71.8288 13.3443 70.492 14.4902 69.9327 15.8952C69.4962 17.0002 69.4962 18.9236 69.9463 20.0558C70.3556 21.0925 71.1604 21.9519 72.2108 22.4976C72.9883 22.9068 73.0974 22.9341 74.6662 22.9341C76.2485 22.9341 76.344 22.9204 77.2171 22.4839C78.0219 22.0883 78.9631 21.2426 78.9631 20.9288C78.9631 20.8743 78.5539 20.5469 78.0628 20.2195L77.1489 19.6056L76.8215 20.0149C75.9212 21.0789 74.216 21.2289 73.2066 20.3559C72.7837 19.9739 72.4154 19.3055 72.4154 18.9099C72.4154 18.6371 72.4836 18.6371 75.7575 18.6371H79.0995V18.0505C79.0995 15.8134 78.1719 14.1355 76.5077 13.3989C75.5938 12.9897 74.2297 12.8396 73.2611 13.0442ZM75.5801 15.4178C75.9484 15.6633 76.2349 16.1681 76.2349 16.5909C76.2349 16.8501 76.1258 16.8638 74.3251 16.8638C72.2244 16.8638 72.1971 16.8501 72.62 16.0453C73.1384 15.0358 74.5434 14.7357 75.5801 15.4178Z" fill="#5D6F92"/>
<path d="M107.787 13.0442C106.491 13.3034 105.127 14.3674 104.54 15.5542C103.299 18.1187 104.24 21.3108 106.614 22.4839C107.487 22.9068 107.623 22.9341 108.974 22.9341C110.283 22.9341 110.474 22.8932 111.211 22.5385C112.275 22.0201 112.998 21.2699 113.516 20.1649C113.898 19.3465 113.953 19.1282 113.953 17.9551C113.953 16.7819 113.898 16.5637 113.516 15.7452C112.493 13.5762 110.324 12.5531 107.787 13.0442ZM110.174 15.7315C110.365 15.8816 110.679 16.2635 110.856 16.6046C111.129 17.1229 111.17 17.3412 111.115 18.187C111.074 18.9918 110.993 19.2646 110.692 19.6602C109.451 21.2835 107.159 20.6151 106.846 18.5416C106.573 16.6728 107.596 15.2677 109.151 15.4042C109.519 15.4314 109.969 15.5815 110.174 15.7315Z" fill="#5D6F92"/>
<path d="M118.263 13.0442C117.349 13.2352 116.449 13.7672 115.971 14.3947C115.562 14.9267 115.521 15.0631 115.521 15.9225C115.521 17.7368 116.258 18.3779 119 19.0054C120.582 19.3601 121.06 19.7557 120.705 20.3968C120.487 20.8197 120.118 20.9561 119.259 20.9561C118.55 20.9561 118.454 20.9152 117.977 20.4377C117.704 20.1649 117.445 19.8512 117.417 19.742C117.363 19.5784 117.186 19.6056 116.408 19.8375C115.903 20.0012 115.399 20.1376 115.289 20.1376C114.839 20.1376 115.385 21.379 116.094 21.9792C117.008 22.7567 117.622 22.9341 119.341 22.9341C120.691 22.9341 121.005 22.8932 121.592 22.6203C122.915 22.0201 123.57 21.0925 123.57 19.8239C123.57 18.2279 122.383 17.3003 119.736 16.8092C118.222 16.5227 117.786 16.0589 118.372 15.3496C118.563 15.104 118.795 15.0358 119.45 14.9813C120.228 14.9267 120.309 14.954 120.678 15.3087C120.896 15.5269 121.101 15.7861 121.128 15.8816C121.223 16.1544 123.351 15.6497 123.406 15.3496C123.488 14.9131 122.574 13.8218 121.796 13.4262C120.951 12.9897 119.341 12.826 118.263 13.0442Z" fill="#5D6F92"/>
<path d="M96.5465 13.3174C96.2873 13.4538 95.9872 13.6721 95.8917 13.7812C95.6189 14.1086 95.4688 14.0404 95.4688 13.5902V13.1673L94.2138 13.2083L92.9452 13.2492L92.9043 19.8924L92.877 26.5493H94.3093H95.7417V24.3667V22.1841L96.4646 22.5525C97.0648 22.8798 97.3377 22.9344 98.2653 22.9344C99.2065 22.9208 99.452 22.8662 100.08 22.5252C101.58 21.7067 102.399 20.3017 102.521 18.3646C102.671 16.0593 101.662 14.0949 99.9158 13.3037C99.1247 12.9491 97.2285 12.9491 96.5465 13.3174ZM98.5517 15.65C99.4111 16.0593 99.7521 16.8368 99.6703 18.1464C99.5885 19.3331 99.2883 19.9197 98.579 20.288C97.6514 20.7655 96.5738 20.5063 95.9736 19.6742C95.7144 19.3059 95.6734 19.074 95.6734 18.0236C95.6871 16.5776 95.9053 16.0456 96.6692 15.65C97.324 15.2954 97.8424 15.2954 98.5517 15.65Z" fill="#5D6F92"/>
<path d="M28.9001 16.4272C28.9001 18.678 28.9547 19.8785 29.0775 20.3695C29.3367 21.3653 29.9505 22.061 30.9736 22.5385C31.7648 22.9068 31.9558 22.9341 33.4699 22.9341C34.9432 22.9341 35.1751 22.9068 35.7889 22.5931C36.8256 22.0747 37.5759 21.2289 37.7532 20.3968C37.8351 20.0149 37.9033 18.2688 37.9033 16.4545V13.1806H36.5528H35.2023L35.1478 16.3454C35.0932 19.783 35.0387 20.0558 34.3566 20.4514C33.4017 21.0243 32.0512 20.5196 31.7648 19.4829C31.6966 19.21 31.6284 17.6686 31.6284 16.0726V13.1806H30.2643H28.9001V16.4272Z" fill="#5D6F92"/>
<path d="M52.2265 18.0231V22.8657H53.5906H54.9547V18.0231V13.1805H53.5906H52.2265V18.0231Z" fill="#5D6F92"/>
<path d="M64.7763 18.0231V22.8657H66.1404H67.5046V18.0231V13.1805H66.1404H64.7763V18.0231Z" fill="#5D6F92"/>
<path d="M100.925 26.6447C100.816 26.6856 100.584 26.8493 100.421 26.9994C99.9978 27.3813 99.9841 28.4044 100.393 28.9228C100.994 29.6867 102.671 29.2092 102.535 28.2953C102.508 28.0361 102.412 27.9815 102.03 27.9815C101.771 27.9815 101.539 28.0634 101.512 28.1452C101.471 28.2544 101.566 28.3226 101.744 28.3226C101.989 28.3226 102.003 28.3635 101.88 28.5954C101.703 28.9228 101.171 28.9501 100.871 28.65C100.748 28.5408 100.653 28.2271 100.653 27.9815C100.653 27.1903 101.225 26.8766 101.853 27.3131C102.044 27.4495 102.221 27.4768 102.358 27.395C102.917 27.0949 101.58 26.3855 100.925 26.6447Z" fill="#5D6F92"/>
<path d="M112.82 26.7817C112.275 27.0681 112.111 27.3546 112.111 28.0503C112.111 28.8824 112.548 29.3462 113.366 29.3462C114.075 29.3462 114.703 28.7051 114.703 27.9957C114.703 27.0272 113.652 26.3588 112.82 26.7817ZM113.68 27.1772C114.321 27.4364 114.103 28.8688 113.421 28.8688C112.902 28.8688 112.507 28.2822 112.67 27.7502C112.834 27.15 113.148 26.9726 113.68 27.1772Z" fill="#5D6F92"/>
<path d="M106.382 27.9819C106.382 29.1823 106.395 29.2778 106.655 29.2778C106.887 29.2778 106.927 29.1823 106.927 28.7322C106.927 28.3775 106.982 28.1865 107.105 28.1865C107.2 28.1865 107.419 28.4321 107.596 28.7322C107.814 29.1414 107.991 29.2778 108.237 29.2778H108.564L108.237 28.7595C107.951 28.3093 107.937 28.2138 108.101 27.9819C108.333 27.6682 108.346 27.068 108.128 26.8497C108.032 26.7542 107.61 26.686 107.173 26.686H106.382V27.9819ZM107.678 27.4363C107.678 27.6273 107.569 27.7227 107.309 27.75C106.982 27.7909 106.927 27.75 106.927 27.4363C106.927 27.1225 106.982 27.0816 107.309 27.1225C107.569 27.1498 107.678 27.2453 107.678 27.4363Z" fill="#5D6F92"/>
<path d="M118.386 27.7086C118.386 28.6225 118.427 28.7862 118.727 29.0727C119.136 29.4956 119.723 29.5092 120.214 29.1273C120.541 28.8681 120.569 28.7726 120.569 27.7632C120.569 26.781 120.541 26.6855 120.296 26.6855C120.05 26.6855 120.023 26.781 120.023 27.6131C120.023 28.568 119.887 28.8681 119.45 28.8681C119.095 28.8681 118.932 28.4452 118.932 27.5176C118.932 26.781 118.904 26.6855 118.659 26.6855C118.413 26.6855 118.386 26.781 118.386 27.7086Z" fill="#5D6F92"/>
<path d="M124.388 27.9819C124.388 29.1687 124.415 29.2778 124.647 29.2778C124.866 29.2778 124.92 29.1687 124.961 28.7595C125.002 28.2957 125.029 28.2547 125.479 28.2138C126.107 28.1456 126.298 27.9683 126.298 27.4499C126.298 26.8361 126.08 26.686 125.179 26.686H124.388V27.9819ZM125.684 27.4363C125.684 27.7364 125.261 27.8864 125.043 27.6682C124.811 27.4363 125.029 27.068 125.37 27.1225C125.575 27.1498 125.684 27.2589 125.684 27.4363Z" fill="#5D6F92"/>
</g>
<defs>
<clipPath id="clip0_1433_20306">
<rect width="130" height="32" fill="white" transform="translate(0.666626)"/>
</clipPath>
</defs>
</svg>
